<svg width="520" height="562" viewBox="0 0 520 562" fill="none" xmlns="http://www.w3.org/2000/svg">
<g opacity="0.2" filter="url(#filter0_f_6635_3811)">
<path fill-rule="evenodd" clip-rule="evenodd" d="M30.0778 66.3794C29.574 67.022 29.0366 67.6375 28.4677 68.2232C27.4715 69.1807 26.2936 69.9279 25.0057 70.4286C24.4457 70.6447 23.8477 70.8009 22.6549 71.109C19.6606 71.8871 18.1615 72.2766 16.974 72.9472C15.6156 73.7132 14.4462 74.7738 13.5517 76.0512C12.6573 77.3286 12.0605 78.7902 11.8054 80.3286C11.5812 81.6738 11.728 83.2156 12.0208 86.2953C12.1188 87.1057 12.1738 87.9207 12.1855 88.737C12.1554 90.1184 11.8561 91.4807 11.297 92.7443C11.0541 93.2954 10.7413 93.8274 10.1151 94.8878C8.54883 97.5565 7.76379 98.8912 7.39761 100.207C6.55389 103.248 7.12883 106.509 8.96198 109.079C9.75603 110.19 10.9502 111.175 13.3348 113.147C14.2859 113.93 14.7618 114.323 15.1785 114.757C16.1361 115.754 16.8833 116.931 17.384 118.219C17.6001 118.779 17.7563 119.377 18.0644 120.57C18.8425 123.564 19.2319 125.063 19.9026 126.251C20.6686 127.609 21.7292 128.778 23.0066 129.673C24.2841 130.567 25.7457 131.164 27.2842 131.419C28.6295 131.643 30.1713 131.496 33.2511 131.203C34.4774 131.085 35.0927 131.027 35.6929 131.039C37.0743 131.069 38.4375 131.372 39.7004 131.927C40.2515 132.17 40.7836 132.483 41.844 133.109C44.5128 134.675 45.8475 135.46 47.1631 135.826C50.2049 136.67 53.4656 136.095 56.0354 134.262C57.1465 133.468 58.1322 132.274 60.1044 129.889C60.8867 128.938 61.2797 128.462 61.7145 128.045C62.7106 127.088 63.8886 126.341 65.1764 125.84C65.7365 125.624 66.3344 125.468 67.5273 125.16C70.5215 124.381 72.0206 123.992 73.2081 123.321C74.5665 122.555 75.7359 121.495 76.6304 120.217C77.5249 118.94 78.1216 117.478 78.3768 115.94C78.6009 114.595 78.4541 113.053 78.1613 109.973C78.0428 108.747 77.9852 108.132 77.9966 107.532C78.0267 106.15 78.3298 104.787 78.8851 103.524C79.128 102.973 79.4408 102.441 80.067 101.381C81.6333 98.7121 82.4183 97.3774 82.7845 96.0618C83.6282 93.0202 83.0533 89.7595 81.2202 87.1898C80.4261 86.0789 79.2319 85.0932 76.8474 83.1211C76.2047 82.6174 75.5893 82.08 75.0036 81.5111C74.0456 80.5153 73.2958 79.3384 72.7981 78.0493C72.5299 77.2783 72.3028 76.4936 72.1178 75.6986C71.3396 72.7044 70.9502 71.2055 70.2795 70.018C69.5136 68.6597 68.4529 67.4903 67.1755 66.5959C65.8981 65.7014 64.4364 65.1047 62.898 64.8496C61.5527 64.6255 60.0108 64.7723 56.931 65.0652C56.1206 65.1632 55.3055 65.2182 54.4892 65.2299C53.1076 65.2031 51.7452 64.901 50.4817 64.3415C49.7468 63.9857 49.0313 63.5912 48.3381 63.1597C45.6694 61.5935 44.3347 60.8085 43.0191 60.4423C41.5173 60.0237 39.9407 59.9469 38.4053 60.2176C36.8699 60.4884 35.4147 61.0997 34.1467 62.0068C33.0357 62.8008 32.0499 63.9949 30.0778 66.3794ZM57.0562 81.0518C57.7357 81.5286 58.1982 82.2554 58.3424 83.0729C58.4865 83.8903 58.3005 84.7315 57.825 85.4119L37.4914 114.455C37.2644 114.812 36.9673 115.12 36.6181 115.36C36.2688 115.599 35.8747 115.765 35.4594 115.848C35.0442 115.931 34.6164 115.929 34.202 115.842C33.7876 115.755 33.3951 115.585 33.0482 115.342C32.7013 115.099 32.4073 114.789 32.1838 114.429C31.9603 114.069 31.812 113.668 31.7479 113.249C31.6838 112.831 31.7052 112.404 31.8108 111.994C31.9164 111.584 32.104 111.199 32.3622 110.864L52.6927 81.8251C53.1696 81.1456 53.8965 80.6831 54.7139 80.5389C55.5314 80.3948 56.3727 80.5808 57.0531 81.0562M61.3022 105.886C61.4946 106.977 61.2456 108.1 60.6102 109.007C59.9747 109.915 59.0047 110.532 57.9137 110.725C56.8226 110.917 55.6998 110.668 54.7922 110.033C53.8847 109.397 53.2668 108.428 53.0744 107.337C52.882 106.246 53.131 105.123 53.7664 104.215C54.4019 103.308 55.3719 102.69 56.4629 102.497C57.554 102.305 58.6768 102.554 59.5844 103.189C60.4919 103.825 61.1098 104.795 61.3022 105.886ZM33.7174 93.7832C34.8085 93.5908 35.7784 92.9729 36.4139 92.0654C37.0494 91.1579 37.2983 90.0351 37.1059 88.9441C36.9136 87.8531 36.2956 86.8832 35.3881 86.2477C34.4806 85.6123 33.3578 85.3634 32.2667 85.5558C31.1756 85.7482 30.2056 86.3661 29.5702 87.2736C28.9347 88.1811 28.6858 89.3038 28.8781 90.3949C29.0705 91.4859 29.6885 92.4558 30.596 93.0913C31.5035 93.7267 32.6263 93.9756 33.7174 93.7832Z" fill="white"/>
<path fill-rule="evenodd" clip-rule="evenodd" d="M135.453 47.7991C134.949 48.4417 134.412 49.0572 133.843 49.6429C132.846 50.6004 131.669 51.3476 130.381 51.8483C129.821 52.0643 129.223 52.2206 128.03 52.5286C125.036 53.3068 123.537 53.6962 122.349 54.3669C120.991 55.1328 119.821 56.1935 118.927 57.4709C118.032 58.7482 117.435 60.2099 117.18 61.7482C116.956 63.0935 117.103 64.6352 117.396 67.715C117.494 68.5254 117.549 69.3404 117.561 70.1566C117.53 71.538 117.231 72.9004 116.672 74.164C116.429 74.715 116.116 75.2471 115.49 76.3075C113.924 78.9762 113.139 80.3109 112.773 81.6264C111.929 84.6681 112.504 87.9287 114.337 90.4984C115.131 91.6094 116.325 92.5951 118.71 94.5671C119.661 95.3494 120.137 95.7424 120.554 96.1771C121.511 97.1733 122.258 98.3511 122.759 99.6389C122.975 100.199 123.131 100.797 123.439 101.99C124.218 104.984 124.607 106.483 125.278 107.67C126.044 109.029 127.104 110.198 128.382 111.092C129.659 111.987 131.121 112.584 132.659 112.839C134.004 113.063 135.546 112.916 138.626 112.623C139.852 112.505 140.468 112.447 141.068 112.458C142.449 112.488 143.812 112.791 145.075 113.347C145.626 113.59 146.159 113.902 147.219 114.529C149.888 116.095 151.222 116.88 152.538 117.246C155.58 118.09 158.841 117.515 161.41 115.682C162.521 114.887 163.507 113.693 165.479 111.309C166.262 110.358 166.655 109.882 167.089 109.465C168.086 108.508 169.264 107.76 170.551 107.26C171.111 107.044 171.709 106.887 172.902 106.579C175.897 105.801 177.396 105.412 178.583 104.741C179.941 103.975 181.111 102.914 182.005 101.637C182.9 100.36 183.497 98.8981 183.752 97.3597C183.976 96.0145 183.829 94.4727 183.536 91.393C183.418 90.1668 183.36 89.5514 183.372 88.9513C183.402 87.5699 183.705 86.2068 184.26 84.9439C184.503 84.3929 184.816 83.8608 185.442 82.8004C187.008 80.1317 187.793 78.7971 188.16 77.4815C189.003 74.4398 188.428 71.1792 186.595 68.6095C185.801 67.4986 184.607 66.5129 182.222 64.5408C181.58 64.0371 180.964 63.4997 180.379 62.9308C179.421 61.9349 178.671 60.7581 178.173 59.469C177.905 58.698 177.678 57.9133 177.493 57.1183C176.715 54.1241 176.325 52.6251 175.654 51.4377C174.889 50.0793 173.828 48.91 172.55 48.0155C171.273 47.1211 169.811 46.5244 168.273 46.2693C166.928 46.0452 165.386 46.192 162.306 46.4848C161.496 46.5829 160.68 46.6378 159.864 46.6496C158.483 46.6227 157.12 46.3207 155.857 45.7612C155.122 45.4054 154.406 45.0109 153.713 44.5793C151.044 43.0131 149.71 42.2282 148.394 41.862C146.892 41.4434 145.316 41.3666 143.78 41.6373C142.245 41.908 140.79 42.5194 139.522 43.4264C138.411 44.2205 137.425 45.4146 135.453 47.7991ZM162.431 62.4715C163.111 62.9482 163.573 63.6751 163.717 64.4925C163.862 65.31 163.675 66.1512 163.2 66.8316L142.866 95.8745C142.639 96.232 142.342 96.5397 141.993 96.7792C141.644 97.0187 141.25 97.1849 140.834 97.2678C140.419 97.3507 139.991 97.3486 139.577 97.2616C139.163 97.1746 138.77 97.0046 138.423 96.7617C138.076 96.5188 137.782 96.2082 137.559 95.8485C137.335 95.4889 137.187 95.0876 137.123 94.6691C137.059 94.2505 137.08 93.8233 137.186 93.4133C137.291 93.0032 137.479 92.6188 137.737 92.2832L158.068 63.2448C158.545 62.5653 159.271 62.1028 160.089 61.9586C160.906 61.8145 161.748 62.0005 162.428 62.4759M166.677 87.3054C166.87 88.3965 166.621 89.5192 165.985 90.4267C165.35 91.3342 164.38 91.9522 163.289 92.1445C162.198 92.3369 161.075 92.088 160.167 91.4526C159.26 90.8172 158.642 89.8472 158.449 88.7562C158.257 87.6652 158.506 86.5424 159.141 85.6349C159.777 84.7274 160.747 84.1095 161.838 83.9171C162.929 83.7247 164.052 83.9736 164.959 84.609C165.867 85.2445 166.485 86.2144 166.677 87.3054ZM139.092 75.2029C140.183 75.0105 141.153 74.3926 141.789 73.4851C142.424 72.5776 142.673 71.4548 142.481 70.3638C142.289 69.2727 141.671 68.3028 140.763 67.6674C139.856 67.032 138.733 66.7831 137.642 66.9754C136.551 67.1678 135.581 67.7857 134.945 68.6933C134.31 69.6008 134.061 70.7235 134.253 71.8146C134.446 72.9056 135.063 73.8755 135.971 74.5109C136.879 75.1464 138.001 75.3953 139.092 75.2029Z" fill="white"/>
<path fill-rule="evenodd" clip-rule="evenodd" d="M240.827 29.2188C240.323 29.8614 239.786 30.4768 239.217 31.0625C238.221 32.02 237.043 32.7672 235.755 33.268C235.195 33.484 234.597 33.6403 233.404 33.9483C230.41 34.7265 228.911 35.1159 227.723 35.7866C226.365 36.5525 225.195 37.6132 224.301 38.8905C223.406 40.1679 222.81 41.6295 222.554 43.1679C222.33 44.5132 222.477 46.0549 222.77 49.1347C222.868 49.9451 222.923 50.7601 222.935 51.5763C222.904 52.9577 222.605 54.3201 222.046 55.5837C221.803 56.1347 221.49 56.6668 220.864 57.7272C219.298 60.3959 218.513 61.7306 218.147 63.0461C217.303 66.0878 217.878 69.3484 219.711 71.9181C220.505 73.0291 221.699 74.0148 224.084 75.9868C225.035 76.7691 225.511 77.1621 225.928 77.5968C226.885 78.5929 227.632 79.7708 228.133 81.0586C228.349 81.6186 228.505 82.2166 228.813 83.4094C229.592 86.4035 229.981 87.9025 230.652 89.0899C231.418 90.4483 232.478 91.6177 233.756 92.5121C235.033 93.4065 236.495 94.0032 238.033 94.2583C239.378 94.4824 240.92 94.3356 244 94.0428C245.226 93.9243 245.842 93.8666 246.442 93.8781C247.823 93.9081 249.186 94.2112 250.449 94.7664C251 95.0094 251.533 95.3221 252.593 95.9483C255.262 97.5145 256.596 98.2995 257.912 98.6656C260.954 99.5093 264.215 98.9343 266.784 97.1012C267.895 96.3071 268.881 95.113 270.853 92.7285C271.636 91.7774 272.029 91.3015 272.463 90.8848C273.46 89.9272 274.638 89.1801 275.925 88.6793C276.486 88.4633 277.083 88.307 278.276 87.999C281.271 87.2208 282.77 86.8314 283.957 86.1607C285.316 85.3948 286.485 84.3341 287.379 83.0568C288.274 81.7794 288.871 80.3177 289.126 78.7794C289.35 77.4341 289.203 75.8924 288.91 72.8126C288.792 71.5865 288.734 70.9711 288.746 70.371C288.776 68.9896 289.079 67.6265 289.634 66.3636C289.877 65.8126 290.19 65.2805 290.816 64.2201C292.382 61.5514 293.167 60.2167 293.534 58.9012C294.377 55.8595 293.802 52.5989 291.969 50.0292C291.175 48.9182 289.981 47.9325 287.596 45.9605C286.954 45.4568 286.338 44.9194 285.753 44.3505C284.795 43.3546 284.045 42.1777 283.547 40.8887C283.279 40.1177 283.052 39.333 282.867 38.5379C282.089 35.5438 281.699 34.0448 281.029 32.8574C280.263 31.499 279.202 30.3296 277.925 29.4352C276.647 28.5408 275.185 27.9441 273.647 27.689C272.302 27.4649 270.76 27.6117 267.68 27.9045C266.87 28.0025 266.055 28.0575 265.238 28.0692C263.857 28.0424 262.494 27.7404 261.231 27.1809C260.496 26.8251 259.78 26.4306 259.087 25.999C256.418 24.4328 255.084 23.6478 253.768 23.2817C252.266 22.863 250.69 22.7862 249.154 23.057C247.619 23.3277 246.164 23.9391 244.896 24.8461C243.785 25.6402 242.799 26.8343 240.827 29.2188ZM267.805 43.8911C268.485 44.3679 268.947 45.0948 269.091 45.9122C269.236 46.7297 269.049 47.5709 268.574 48.2513L248.24 77.2942C248.013 77.6517 247.716 77.9594 247.367 78.1989C247.018 78.4383 246.624 78.6045 246.208 78.6875C245.793 78.7704 245.365 78.7683 244.951 78.6813C244.537 78.5943 244.144 78.4242 243.797 78.1814C243.45 77.9385 243.156 77.6279 242.933 77.2682C242.709 76.9085 242.561 76.5073 242.497 76.0888C242.433 75.6702 242.454 75.243 242.56 74.8329C242.665 74.4229 242.853 74.0385 243.111 73.7029L263.442 44.6644C263.919 43.985 264.645 43.5224 265.463 43.3783C266.28 43.2342 267.122 43.4202 267.802 43.8956M272.051 68.7251C272.244 69.8161 271.995 70.9389 271.359 71.8464C270.724 72.7539 269.754 73.3718 268.663 73.5642C267.572 73.7566 266.449 73.5077 265.541 72.8723C264.634 72.2368 264.016 71.2669 263.823 70.1759C263.631 69.0849 263.88 67.9621 264.515 67.0546C265.151 66.1471 266.121 65.5292 267.212 65.3368C268.303 65.1444 269.426 65.3933 270.333 66.0287C271.241 66.6642 271.859 67.6341 272.051 68.7251ZM244.466 56.6226C245.557 56.4302 246.527 55.8123 247.163 54.9048C247.798 53.9972 248.047 52.8745 247.855 51.7834C247.663 50.6924 247.045 49.7225 246.137 49.0871C245.23 48.4516 244.107 48.2027 243.016 48.3951C241.925 48.5875 240.955 49.2054 240.319 50.1129C239.684 51.0204 239.435 52.1432 239.627 53.2342C239.82 54.3253 240.437 55.2952 241.345 55.9306C242.253 56.566 243.375 56.8149 244.466 56.6226Z" fill="white"/>
<path fill-rule="evenodd" clip-rule="evenodd" d="M346.202 10.6385C345.698 11.2811 345.161 11.8965 344.592 12.4822C343.596 13.4397 342.418 14.1869 341.13 14.6877C340.57 14.9037 339.972 15.0599 338.779 15.368C335.785 16.1462 334.286 16.5356 333.098 17.2063C331.74 17.9722 330.57 19.0328 329.676 20.3102C328.781 21.5876 328.185 23.0492 327.929 24.5876C327.705 25.9328 327.852 27.4746 328.145 30.5543C328.243 31.3647 328.298 32.1798 328.31 32.996C328.279 34.3774 327.98 35.7398 327.421 37.0033C327.178 37.5544 326.865 38.0865 326.239 39.1469C324.673 41.8156 323.888 43.1502 323.522 44.4658C322.678 47.5075 323.253 50.7681 325.086 53.3378C325.88 54.4487 327.074 55.4344 329.459 57.4065C330.41 58.1887 330.886 58.5818 331.303 59.0165C332.26 60.0126 333.007 61.1905 333.508 62.4783C333.724 63.0383 333.88 63.6363 334.188 64.829C334.967 67.8232 335.356 69.3222 336.027 70.5096C336.793 71.868 337.853 73.0373 339.131 73.9318C340.408 74.8262 341.87 75.4229 343.408 75.678C344.753 75.9021 346.295 75.7553 349.375 75.4625C350.601 75.344 351.217 75.2863 351.817 75.2977C353.198 75.3278 354.561 75.6308 355.824 76.1861C356.375 76.4291 356.908 76.7418 357.968 77.368C360.637 78.9341 361.971 79.7191 363.287 80.0853C366.329 80.9289 369.59 80.354 372.159 78.5209C373.27 77.7268 374.256 76.5327 376.228 74.1482C377.011 73.1971 377.404 72.7212 377.838 72.3044C378.835 71.3469 380.013 70.5997 381.3 70.099C381.861 69.883 382.458 69.7267 383.651 69.4186C386.646 68.6405 388.145 68.2511 389.332 67.5804C390.691 66.8145 391.86 65.7538 392.754 64.4764C393.649 63.1991 394.246 61.7374 394.501 60.199C394.725 58.8538 394.578 57.3121 394.285 54.2323C394.167 53.0061 394.109 52.3908 394.121 51.7907C394.151 50.4093 394.454 49.0462 395.009 47.7833C395.252 47.2323 395.565 46.7002 396.191 45.6398C397.757 42.9711 398.542 41.6364 398.909 40.3209C399.752 37.2792 399.177 34.0185 397.344 31.4489C396.55 30.3379 395.356 29.3522 392.971 27.3802C392.329 26.8765 391.713 26.339 391.128 25.7702C390.17 24.7743 389.42 23.5974 388.922 22.3084C388.654 21.5374 388.427 20.7527 388.242 19.9576C387.464 16.9635 387.074 15.4645 386.404 14.277C385.638 12.9187 384.577 11.7493 383.3 10.8549C382.022 9.96048 380.56 9.36377 379.022 9.10866C377.677 8.88457 376.135 9.03133 373.055 9.3242C372.245 9.42221 371.43 9.47719 370.613 9.48891C369.232 9.46208 367.869 9.16007 366.606 8.60053C365.871 8.24474 365.155 7.85024 364.462 7.41869C361.793 5.8525 360.459 5.06751 359.143 4.70136C357.641 4.28271 356.065 4.20592 354.529 4.47665C352.994 4.74738 351.539 5.35875 350.271 6.2658C349.16 7.05983 348.174 8.25398 346.202 10.6385ZM373.18 25.3108C373.86 25.7876 374.322 26.5145 374.466 27.3319C374.611 28.1493 374.424 28.9906 373.949 29.671L353.615 58.7139C353.388 59.0714 353.091 59.3791 352.742 59.6186C352.393 59.858 351.999 60.0242 351.583 60.1071C351.168 60.19 350.74 60.1879 350.326 60.101C349.912 60.014 349.519 59.8439 349.172 59.6011C348.825 59.3582 348.531 59.0475 348.308 58.6879C348.084 58.3282 347.936 57.927 347.872 57.5084C347.808 57.0899 347.829 56.6627 347.935 56.2526C348.04 55.8426 348.228 55.4581 348.486 55.1226L368.817 26.0841C369.294 25.4047 370.02 24.9421 370.838 24.798C371.655 24.6538 372.497 24.8399 373.177 25.3153M377.426 50.1448C377.619 51.2358 377.37 52.3586 376.734 53.2661C376.099 54.1736 375.129 54.7915 374.038 54.9839C372.947 55.1763 371.824 54.9274 370.916 54.2919C370.009 53.6565 369.391 52.6866 369.198 51.5956C369.006 50.5045 369.255 49.3818 369.89 48.4743C370.526 47.5668 371.496 46.9488 372.587 46.7565C373.678 46.5641 374.801 46.813 375.708 47.4484C376.616 48.0838 377.234 49.0538 377.426 50.1448ZM349.841 38.0422C350.932 37.8499 351.902 37.2319 352.538 36.3244C353.173 35.4169 353.422 34.2942 353.23 33.2031C353.038 32.1121 352.42 31.1422 351.512 30.5068C350.605 29.8713 349.482 29.6224 348.391 29.8148C347.3 30.0072 346.33 30.6251 345.694 31.5326C345.059 32.4401 344.81 33.5629 345.002 34.6539C345.195 35.7449 345.812 36.7149 346.72 37.3503C347.628 37.9857 348.75 38.2346 349.841 38.0422Z" fill="white"/>
<path fill-rule="evenodd" clip-rule="evenodd" d="M48.6588 171.754C48.1551 172.397 47.6176 173.012 47.0487 173.598C46.0525 174.555 44.8746 175.302 43.5868 175.803C43.0267 176.019 42.4287 176.175 41.2359 176.483C38.2416 177.262 36.7426 177.651 35.5551 178.322C34.1967 179.088 33.0272 180.148 32.1328 181.426C31.2383 182.703 30.6416 184.165 30.3864 185.703C30.1623 187.048 30.309 188.59 30.6019 191.67C30.6999 192.48 30.7548 193.295 30.7666 194.111C30.7365 195.493 30.4372 196.855 29.8781 198.119C29.6351 198.67 29.3224 199.202 28.6962 200.262C27.1299 202.931 26.3448 204.266 25.9787 205.581C25.1349 208.623 25.7099 211.884 27.543 214.453C28.3371 215.564 29.5313 216.55 31.9158 218.522C32.8669 219.304 33.3428 219.697 33.7596 220.132C34.7171 221.128 35.4643 222.306 35.9651 223.594C36.1811 224.154 36.3374 224.752 36.6454 225.945C37.4236 228.939 37.813 230.438 38.4837 231.625C39.2496 232.983 40.3103 234.153 41.5877 235.047C42.8651 235.942 44.3268 236.538 45.8652 236.793C47.2105 237.018 48.7523 236.871 51.8322 236.578C53.0584 236.459 53.6738 236.402 54.274 236.413C55.6554 236.443 57.0185 236.746 58.2814 237.302C58.8325 237.545 59.3646 237.857 60.425 238.483C63.0938 240.05 64.4285 240.835 65.7441 241.201C68.7859 242.044 72.0467 241.469 74.6165 239.636C75.7275 238.842 76.7133 237.648 78.6854 235.264C79.4677 234.313 79.8608 233.837 80.2955 233.42C81.2917 232.462 82.4696 231.715 83.7575 231.214C84.3175 230.998 84.9155 230.842 86.1083 230.534C89.1026 229.756 90.6016 229.367 91.7891 228.696C93.1476 227.93 94.317 226.869 95.2115 225.592C96.1059 224.315 96.7027 222.853 96.9578 221.315C97.1819 219.969 97.0352 218.428 96.7424 215.348C96.6239 214.122 96.5662 213.506 96.5777 212.906C96.6078 211.525 96.9108 210.162 97.4661 208.899C97.7091 208.348 98.0219 207.816 98.6481 206.755C100.214 204.087 100.999 202.752 101.366 201.436C102.209 198.395 101.634 195.134 99.8012 192.564C99.0072 191.453 97.813 190.468 95.4284 188.496C94.7858 187.992 94.1703 187.455 93.5846 186.886C92.6267 185.89 91.8769 184.713 91.3792 183.424C91.111 182.653 90.8839 181.868 90.6988 181.073C89.9206 178.079 89.5312 176.58 88.8605 175.393C88.0946 174.034 87.034 172.865 85.7565 171.97C84.4791 171.076 83.0174 170.479 81.479 170.224C80.1337 170 78.5919 170.147 75.512 170.44C74.7016 170.538 73.8865 170.593 73.0703 170.604C71.6887 170.578 70.3263 170.276 69.0628 169.716C68.3279 169.36 67.6123 168.966 66.9192 168.534C64.2504 166.968 62.9157 166.183 61.6001 165.817C60.0983 165.398 58.5218 165.321 56.9864 165.592C55.451 165.863 53.9958 166.474 52.7278 167.381C51.6167 168.175 50.631 169.369 48.6588 171.754ZM75.6373 186.426C76.3167 186.903 76.7793 187.63 76.9234 188.447C77.0676 189.265 76.8815 190.106 76.4061 190.786L56.0724 219.829C55.8454 220.187 55.5483 220.495 55.1991 220.734C54.8499 220.973 54.4557 221.14 54.0405 221.223C53.6252 221.306 53.1975 221.303 52.783 221.216C52.3686 221.129 51.9761 220.959 51.6293 220.717C51.2824 220.474 50.9883 220.163 50.7649 219.803C50.5414 219.444 50.3931 219.042 50.329 218.624C50.2649 218.205 50.2863 217.778 50.3918 217.368C50.4974 216.958 50.685 216.574 50.9433 216.238L71.2738 187.2C71.7506 186.52 72.4775 186.058 73.295 185.913C74.1124 185.769 74.9537 185.955 75.6341 186.431M79.8832 211.26C80.0756 212.351 79.8267 213.474 79.1912 214.382C78.5558 215.289 77.5858 215.907 76.4947 216.099C75.4036 216.292 74.2808 216.043 73.3733 215.407C72.4658 214.772 71.8478 213.802 71.6555 212.711C71.4631 211.62 71.712 210.497 72.3475 209.59C72.983 208.682 73.9529 208.064 75.044 207.872C76.1351 207.68 77.2579 207.928 78.1654 208.564C79.0729 209.199 79.6909 210.169 79.8832 211.26ZM52.2985 199.158C53.3895 198.965 54.3595 198.347 54.995 197.44C55.6304 196.532 55.8794 195.41 55.687 194.319C55.4946 193.228 54.8767 192.258 53.9692 191.622C53.0616 190.987 51.9388 190.738 50.8477 190.93C49.7567 191.123 48.7867 191.741 48.1512 192.648C47.5158 193.556 47.2668 194.678 47.4592 195.769C47.6516 196.86 48.2695 197.83 49.177 198.466C50.0846 199.101 51.2074 199.35 52.2985 199.158Z" fill="white"/>
<path fill-rule="evenodd" clip-rule="evenodd" d="M154.033 153.174C153.529 153.816 152.992 154.432 152.423 155.017C151.427 155.975 150.249 156.722 148.961 157.223C148.401 157.439 147.803 157.595 146.61 157.903C143.616 158.681 142.117 159.071 140.929 159.741C139.571 160.507 138.401 161.568 137.507 162.845C136.612 164.123 136.016 165.584 135.76 167.123C135.536 168.468 135.683 170.01 135.976 173.089C136.074 173.9 136.129 174.715 136.141 175.531C136.11 176.913 135.811 178.275 135.252 179.538C135.009 180.09 134.696 180.622 134.07 181.682C132.504 184.351 131.719 185.685 131.353 187.001C130.509 190.043 131.084 193.303 132.917 195.873C133.711 196.984 134.905 197.97 137.29 199.942C138.241 200.724 138.717 201.117 139.134 201.552C140.091 202.548 140.838 203.726 141.339 205.013C141.555 205.573 141.711 206.171 142.019 207.364C142.798 210.358 143.187 211.857 143.858 213.045C144.624 214.403 145.684 215.572 146.962 216.467C148.239 217.361 149.701 217.958 151.239 218.213C152.585 218.437 154.126 218.29 157.206 217.998C158.432 217.879 159.048 217.821 159.648 217.833C161.029 217.863 162.393 218.166 163.655 218.721C164.207 218.964 164.739 219.277 165.799 219.903C168.468 221.469 169.803 222.254 171.118 222.62C174.16 223.464 177.421 222.889 179.991 221.056C181.102 220.262 182.087 219.068 184.059 216.683C184.842 215.732 185.235 215.256 185.67 214.84C186.666 213.882 187.844 213.135 189.131 212.634C189.692 212.418 190.29 212.262 191.482 211.954C194.477 211.176 195.976 210.786 197.163 210.116C198.522 209.35 199.691 208.289 200.585 207.012C201.48 205.734 202.077 204.273 202.332 202.734C202.556 201.389 202.409 199.847 202.116 196.767C201.998 195.541 201.94 194.926 201.952 194.326C201.982 192.944 202.285 191.581 202.84 190.318C203.083 189.767 203.396 189.235 204.022 188.175C205.588 185.506 206.373 184.172 206.74 182.856C207.583 179.814 207.008 176.554 205.175 173.984C204.381 172.873 203.187 171.887 200.802 169.915C200.16 169.412 199.544 168.874 198.959 168.305C198.001 167.309 197.251 166.133 196.753 164.844C196.485 164.073 196.258 163.288 196.073 162.493C195.295 159.499 194.905 158 194.235 156.812C193.469 155.454 192.408 154.284 191.131 153.39C189.853 152.496 188.391 151.899 186.853 151.644C185.508 151.42 183.966 151.566 180.886 151.859C180.076 151.957 179.261 152.012 178.444 152.024C177.063 151.997 175.7 151.695 174.437 151.136C173.702 150.78 172.986 150.385 172.293 149.954C169.624 148.388 168.29 147.603 166.974 147.237C165.472 146.818 163.896 146.741 162.36 147.012C160.825 147.283 159.37 147.894 158.102 148.801C156.991 149.595 156.005 150.789 154.033 153.174ZM181.011 167.846C181.691 168.323 182.153 169.05 182.297 169.867C182.442 170.684 182.256 171.526 181.78 172.206L161.446 201.249C161.219 201.607 160.922 201.914 160.573 202.154C160.224 202.393 159.83 202.559 159.414 202.642C158.999 202.725 158.571 202.723 158.157 202.636C157.743 202.549 157.35 202.379 157.003 202.136C156.656 201.893 156.362 201.583 156.139 201.223C155.915 200.863 155.767 200.462 155.703 200.044C155.639 199.625 155.66 199.198 155.766 198.788C155.871 198.378 156.059 197.993 156.317 197.658L176.648 168.619C177.125 167.94 177.852 167.477 178.669 167.333C179.486 167.189 180.328 167.375 181.008 167.85M185.257 192.68C185.45 193.771 185.201 194.894 184.565 195.801C183.93 196.709 182.96 197.327 181.869 197.519C180.778 197.711 179.655 197.463 178.747 196.827C177.84 196.192 177.222 195.222 177.029 194.131C176.837 193.04 177.086 191.917 177.722 191.009C178.357 190.102 179.327 189.484 180.418 189.292C181.509 189.099 182.632 189.348 183.539 189.984C184.447 190.619 185.065 191.589 185.257 192.68ZM157.672 180.577C158.764 180.385 159.734 179.767 160.369 178.86C161.004 177.952 161.253 176.829 161.061 175.738C160.869 174.647 160.251 173.677 159.343 173.042C158.436 172.406 157.313 172.158 156.222 172.35C155.131 172.542 154.161 173.16 153.525 174.068C152.89 174.975 152.641 176.098 152.833 177.189C153.026 178.28 153.644 179.25 154.551 179.885C155.459 180.521 156.581 180.77 157.672 180.577Z" fill="white"/>
<path fill-rule="evenodd" clip-rule="evenodd" d="M259.408 134.593C258.904 135.236 258.367 135.851 257.798 136.437C256.802 137.395 255.624 138.142 254.336 138.642C253.776 138.859 253.178 139.015 251.985 139.323C248.991 140.101 247.492 140.49 246.304 141.161C244.946 141.927 243.776 142.988 242.882 144.265C241.987 145.542 241.391 147.004 241.135 148.542C240.911 149.888 241.058 151.429 241.351 154.509C241.449 155.32 241.504 156.135 241.516 156.951C241.485 158.332 241.186 159.695 240.627 160.958C240.384 161.509 240.071 162.041 239.445 163.102C237.879 165.77 237.094 167.105 236.728 168.421C235.884 171.462 236.459 174.723 238.292 177.293C239.086 178.404 240.28 179.389 242.665 181.361C243.616 182.144 244.092 182.537 244.509 182.971C245.466 183.967 246.213 185.145 246.714 186.433C246.93 186.993 247.086 187.591 247.394 188.784C248.173 191.778 248.562 193.277 249.233 194.464C249.999 195.823 251.059 196.992 252.337 197.887C253.614 198.781 255.076 199.378 256.614 199.633C257.96 199.857 259.501 199.71 262.581 199.417C263.807 199.299 264.423 199.241 265.023 199.253C266.404 199.283 267.768 199.586 269.03 200.141C269.582 200.384 270.114 200.697 271.174 201.323C273.843 202.889 275.178 203.674 276.493 204.04C279.535 204.884 282.796 204.309 285.366 202.476C286.477 201.682 287.462 200.488 289.434 198.103C290.217 197.152 290.61 196.676 291.045 196.259C292.041 195.302 293.219 194.555 294.506 194.054C295.067 193.838 295.665 193.682 296.857 193.373C299.852 192.595 301.351 192.206 302.538 191.535C303.897 190.769 305.066 189.709 305.96 188.431C306.855 187.154 307.452 185.692 307.707 184.154C307.931 182.809 307.784 181.267 307.491 178.187C307.373 176.961 307.315 176.346 307.327 175.745C307.357 174.364 307.66 173.001 308.215 171.738C308.458 171.187 308.771 170.655 309.397 169.595C310.963 166.926 311.748 165.591 312.115 164.276C312.958 161.234 312.383 157.973 310.55 155.404C309.756 154.293 308.562 153.307 306.177 151.335C305.535 150.831 304.919 150.294 304.334 149.725C303.376 148.729 302.626 147.552 302.128 146.263C301.86 145.492 301.633 144.708 301.448 143.912C300.67 140.918 300.28 139.419 299.61 138.232C298.844 136.874 297.783 135.704 296.506 134.81C295.228 133.915 293.766 133.319 292.228 133.063C290.883 132.839 289.341 132.986 286.261 133.279C285.451 133.377 284.636 133.432 283.819 133.444C282.438 133.417 281.075 133.115 279.812 132.555C279.077 132.2 278.361 131.805 277.668 131.374C274.999 129.807 273.665 129.022 272.349 128.656C270.847 128.238 269.271 128.161 267.735 128.431C266.2 128.702 264.745 129.314 263.477 130.221C262.366 131.015 261.38 132.209 259.408 134.593ZM286.386 149.266C287.066 149.742 287.528 150.469 287.672 151.287C287.817 152.104 287.631 152.945 287.155 153.626L266.821 182.669C266.594 183.026 266.297 183.334 265.948 183.573C265.599 183.813 265.205 183.979 264.789 184.062C264.374 184.145 263.946 184.143 263.532 184.056C263.118 183.969 262.725 183.799 262.378 183.556C262.031 183.313 261.737 183.002 261.514 182.643C261.29 182.283 261.142 181.882 261.078 181.463C261.014 181.045 261.035 180.618 261.141 180.207C261.246 179.797 261.434 179.413 261.692 179.077L282.023 150.039C282.5 149.36 283.227 148.897 284.044 148.753C284.861 148.609 285.703 148.795 286.383 149.27M290.632 174.1C290.825 175.191 290.576 176.313 289.94 177.221C289.305 178.128 288.335 178.746 287.244 178.939C286.153 179.131 285.03 178.882 284.122 178.247C283.215 177.611 282.597 176.641 282.404 175.55C282.212 174.459 282.461 173.337 283.097 172.429C283.732 171.522 284.702 170.904 285.793 170.711C286.884 170.519 288.007 170.768 288.914 171.403C289.822 172.039 290.44 173.009 290.632 174.1ZM263.047 161.997C264.139 161.805 265.109 161.187 265.744 160.279C266.379 159.372 266.628 158.249 266.436 157.158C266.244 156.067 265.626 155.097 264.718 154.462C263.811 153.826 262.688 153.577 261.597 153.77C260.506 153.962 259.536 154.58 258.9 155.487C258.265 156.395 258.016 157.518 258.208 158.609C258.401 159.7 259.019 160.67 259.926 161.305C260.834 161.941 261.956 162.189 263.047 161.997Z" fill="white"/>
<path fill-rule="evenodd" clip-rule="evenodd" d="M364.782 116.013C364.278 116.656 363.741 117.271 363.172 117.857C362.176 118.814 360.998 119.561 359.71 120.062C359.15 120.278 358.552 120.434 357.359 120.743C354.365 121.521 352.866 121.91 351.678 122.581C350.32 123.347 349.15 124.407 348.256 125.685C347.361 126.962 346.765 128.424 346.509 129.962C346.285 131.307 346.432 132.849 346.725 135.929C346.823 136.739 346.878 137.554 346.89 138.371C346.86 139.752 346.56 141.114 346.001 142.378C345.758 142.929 345.445 143.461 344.819 144.521C343.253 147.19 342.468 148.525 342.102 149.84C341.258 152.882 341.833 156.143 343.666 158.712C344.46 159.823 345.654 160.809 348.039 162.781C348.99 163.563 349.466 163.956 349.883 164.391C350.84 165.387 351.587 166.565 352.088 167.853C352.304 168.413 352.46 169.011 352.768 170.204C353.547 173.198 353.936 174.697 354.607 175.884C355.373 177.242 356.433 178.412 357.711 179.306C358.988 180.201 360.45 180.797 361.988 181.053C363.334 181.277 364.875 181.13 367.955 180.837C369.181 180.718 369.797 180.661 370.397 180.672C371.778 180.702 373.142 181.005 374.404 181.561C374.956 181.804 375.488 182.116 376.548 182.742C379.217 184.309 380.552 185.094 381.867 185.46C384.909 186.303 388.17 185.728 390.74 183.895C391.851 183.101 392.836 181.907 394.808 179.523C395.591 178.572 395.984 178.096 396.419 177.679C397.415 176.721 398.593 175.974 399.881 175.474C400.441 175.257 401.039 175.101 402.231 174.793C405.226 174.015 406.725 173.626 407.912 172.955C409.271 172.189 410.44 171.128 411.335 169.851C412.229 168.574 412.826 167.112 413.081 165.574C413.305 164.228 413.158 162.687 412.865 159.607C412.747 158.381 412.689 157.765 412.701 157.165C412.731 155.784 413.034 154.421 413.589 153.158C413.832 152.607 414.145 152.075 414.771 151.014C416.337 148.346 417.122 147.011 417.489 145.695C418.332 142.654 417.757 139.393 415.924 136.823C415.13 135.712 413.936 134.727 411.551 132.755C410.909 132.251 410.293 131.714 409.708 131.145C408.75 130.149 408 128.972 407.502 127.683C407.234 126.912 407.007 126.127 406.822 125.332C406.044 122.338 405.654 120.839 404.984 119.652C404.218 118.293 403.157 117.124 401.88 116.229C400.602 115.335 399.14 114.738 397.602 114.483C396.257 114.259 394.715 114.406 391.635 114.699C390.825 114.797 390.01 114.852 389.193 114.863C387.812 114.837 386.449 114.535 385.186 113.975C384.451 113.619 383.735 113.225 383.042 112.793C380.373 111.227 379.039 110.442 377.723 110.076C376.221 109.657 374.645 109.58 373.109 109.851C371.574 110.122 370.119 110.733 368.851 111.64C367.74 112.434 366.754 113.628 364.782 116.013ZM391.76 130.685C392.44 131.162 392.902 131.889 393.046 132.706C393.191 133.524 393.005 134.365 392.529 135.045L372.195 164.088C371.968 164.446 371.671 164.754 371.322 164.993C370.973 165.233 370.579 165.399 370.164 165.482C369.748 165.565 369.321 165.562 368.906 165.475C368.492 165.388 368.099 165.218 367.752 164.976C367.405 164.733 367.111 164.422 366.888 164.062C366.664 163.703 366.516 163.302 366.452 162.883C366.388 162.464 366.409 162.037 366.515 161.627C366.62 161.217 366.808 160.833 367.066 160.497L387.397 131.459C387.874 130.779 388.601 130.317 389.418 130.172C390.235 130.028 391.077 130.214 391.757 130.69M396.006 155.519C396.199 156.61 395.95 157.733 395.314 158.641C394.679 159.548 393.709 160.166 392.618 160.358C391.527 160.551 390.404 160.302 389.496 159.666C388.589 159.031 387.971 158.061 387.779 156.97C387.586 155.879 387.835 154.756 388.471 153.849C389.106 152.941 390.076 152.323 391.167 152.131C392.258 151.939 393.381 152.187 394.288 152.823C395.196 153.458 395.814 154.428 396.006 155.519ZM368.422 143.417C369.513 143.224 370.483 142.606 371.118 141.699C371.753 140.791 372.002 139.669 371.81 138.578C371.618 137.487 371 136.517 370.092 135.881C369.185 135.246 368.062 134.997 366.971 135.189C365.88 135.382 364.91 136 364.274 136.907C363.639 137.815 363.39 138.937 363.582 140.028C363.775 141.119 364.393 142.089 365.3 142.725C366.208 143.36 367.33 143.609 368.422 143.417Z" fill="white"/>
<path fill-rule="evenodd" clip-rule="evenodd" d="M67.2389 277.128C66.7352 277.771 66.1977 278.387 65.6288 278.972C64.6326 279.93 63.4547 280.677 62.1668 281.178C61.6068 281.394 61.0088 281.55 59.816 281.858C56.8217 282.636 55.3227 283.026 54.1352 283.696C52.7768 284.462 51.6073 285.523 50.7129 286.8C49.8184 288.078 49.2216 289.539 48.9665 291.078C48.7424 292.423 48.8891 293.965 49.182 297.044C49.28 297.855 49.3349 298.67 49.3466 299.486C49.3166 300.867 49.0173 302.23 48.4582 303.493C48.2152 304.044 47.9024 304.576 47.2762 305.637C45.71 308.306 44.9249 309.64 44.5587 310.956C43.715 313.997 44.29 317.258 46.1231 319.828C46.9172 320.939 48.1113 321.924 50.4959 323.896C51.447 324.679 51.9229 325.072 52.3397 325.506C53.2972 326.503 54.0444 327.68 54.5452 328.968C54.7612 329.528 54.9175 330.126 55.2255 331.319C56.0037 334.313 56.3931 335.812 57.0638 337C57.8297 338.358 58.8904 339.527 60.1678 340.422C61.4452 341.316 62.9069 341.913 64.4453 342.168C65.7906 342.392 67.3324 342.245 70.4123 341.952C71.6385 341.834 72.2539 341.776 72.854 341.788C74.2355 341.818 75.5986 342.121 76.8615 342.676C77.4126 342.919 77.9447 343.232 79.0051 343.858C81.6739 345.424 83.0086 346.209 84.3242 346.575C87.366 347.419 90.6268 346.844 93.1966 345.011C94.3076 344.217 95.2933 343.023 97.2655 340.638C98.0478 339.687 98.4408 339.211 98.8756 338.794C99.8718 337.837 101.05 337.09 102.338 336.589C102.898 336.373 103.496 336.217 104.688 335.909C107.683 335.13 109.182 334.741 110.369 334.07C111.728 333.304 112.897 332.244 113.792 330.966C114.686 329.689 115.283 328.227 115.538 326.689C115.762 325.344 115.615 323.802 115.322 320.722C115.204 319.496 115.146 318.881 115.158 318.281C115.188 316.899 115.491 315.536 116.046 314.273C116.289 313.722 116.602 313.19 117.228 312.13C118.794 309.461 119.579 308.126 119.946 306.811C120.789 303.769 120.214 300.509 118.381 297.939C117.587 296.828 116.393 295.842 114.008 293.87C113.366 293.366 112.75 292.829 112.165 292.26C111.207 291.264 110.457 290.087 109.959 288.798C109.691 288.027 109.464 287.243 109.279 286.448C108.501 283.453 108.111 281.954 107.441 280.767C106.675 279.409 105.614 278.239 104.337 277.345C103.059 276.45 101.598 275.854 100.059 275.599C98.7138 275.375 97.172 275.521 94.0921 275.814C93.2817 275.912 92.4666 275.967 91.6504 275.979C90.2688 275.952 88.9064 275.65 87.6429 275.091C86.908 274.735 86.1924 274.34 85.4993 273.909C82.8305 272.342 81.4958 271.558 80.1802 271.191C78.6784 270.773 77.1019 270.696 75.5665 270.967C74.0311 271.237 72.5759 271.849 71.3078 272.756C70.1968 273.55 69.2111 274.744 67.2389 277.128ZM94.2174 291.801C94.8968 292.278 95.3594 293.004 95.5035 293.822C95.6477 294.639 95.4616 295.481 94.9862 296.161L74.6525 325.204C74.4255 325.561 74.1284 325.869 73.7792 326.109C73.4299 326.348 73.0358 326.514 72.6205 326.597C72.2053 326.68 71.7775 326.678 71.3631 326.591C70.9487 326.504 70.5562 326.334 70.2093 326.091C69.8625 325.848 69.5684 325.538 69.3449 325.178C69.1215 324.818 68.9732 324.417 68.9091 323.998C68.845 323.58 68.8663 323.153 68.9719 322.743C69.0775 322.333 69.2651 321.948 69.5234 321.613L89.8539 292.574C90.3307 291.895 91.0576 291.432 91.8751 291.288C92.6925 291.144 93.5338 291.33 94.2142 291.805M98.4633 316.635C98.6557 317.726 98.4068 318.849 97.7713 319.756C97.1358 320.664 96.1659 321.281 95.0748 321.474C93.9837 321.666 92.8609 321.417 91.9534 320.782C91.0458 320.146 90.4279 319.177 90.2355 318.086C90.0432 316.995 90.2921 315.872 90.9276 314.964C91.563 314.057 92.533 313.439 93.6241 313.246C94.7151 313.054 95.838 313.303 96.7455 313.938C97.653 314.574 98.2709 315.544 98.4633 316.635ZM70.8785 304.532C71.9696 304.34 72.9396 303.722 73.575 302.814C74.2105 301.907 74.4594 300.784 74.2671 299.693C74.0747 298.602 73.4568 297.632 72.5492 296.997C71.6417 296.361 70.5189 296.112 69.4278 296.305C68.3367 296.497 67.3668 297.115 66.7313 298.023C66.0958 298.93 65.8469 300.053 66.0393 301.144C66.2317 302.235 66.8496 303.205 67.7571 303.84C68.6647 304.476 69.7875 304.725 70.8785 304.532Z" fill="white"/>
<path fill-rule="evenodd" clip-rule="evenodd" d="M172.613 258.548C172.109 259.191 171.572 259.806 171.003 260.392C170.007 261.349 168.829 262.097 167.541 262.597C166.981 262.813 166.383 262.97 165.19 263.278C162.196 264.056 160.697 264.445 159.509 265.116C158.151 265.882 156.981 266.942 156.087 268.22C155.192 269.497 154.596 270.959 154.341 272.497C154.116 273.842 154.263 275.384 154.556 278.464C154.654 279.274 154.709 280.089 154.721 280.906C154.691 282.287 154.391 283.649 153.832 284.913C153.589 285.464 153.276 285.996 152.65 287.057C151.084 289.725 150.299 291.06 149.933 292.375C149.089 295.417 149.664 298.678 151.497 301.247C152.291 302.358 153.485 303.344 155.87 305.316C156.821 306.098 157.297 306.491 157.714 306.926C158.671 307.922 159.418 309.1 159.919 310.388C160.135 310.948 160.291 311.546 160.6 312.739C161.378 315.733 161.767 317.232 162.438 318.419C163.204 319.778 164.264 320.947 165.542 321.841C166.819 322.736 168.281 323.333 169.819 323.588C171.165 323.812 172.706 323.665 175.786 323.372C177.013 323.254 177.628 323.196 178.228 323.207C179.61 323.237 180.973 323.541 182.236 324.096C182.787 324.339 183.319 324.651 184.379 325.278C187.048 326.844 188.383 327.629 189.698 327.995C192.74 328.839 196.001 328.264 198.571 326.431C199.682 325.636 200.667 324.442 202.64 322.058C203.422 321.107 203.815 320.631 204.25 320.214C205.246 319.257 206.424 318.509 207.712 318.009C208.272 317.793 208.87 317.636 210.062 317.328C213.057 316.55 214.556 316.161 215.743 315.49C217.102 314.724 218.271 313.663 219.166 312.386C220.06 311.109 220.657 309.647 220.912 308.109C221.136 306.763 220.989 305.222 220.696 302.142C220.578 300.916 220.52 300.3 220.532 299.7C220.562 298.319 220.865 296.956 221.42 295.693C221.663 295.142 221.976 294.61 222.602 293.549C224.168 290.881 224.953 289.546 225.32 288.231C226.163 285.189 225.588 281.928 223.755 279.359C222.961 278.248 221.767 277.262 219.383 275.29C218.74 274.786 218.124 274.249 217.539 273.68C216.581 272.684 215.831 271.507 215.333 270.218C215.065 269.447 214.838 268.662 214.653 267.867C213.875 264.873 213.485 263.374 212.815 262.187C212.049 260.828 210.988 259.659 209.711 258.765C208.433 257.87 206.972 257.273 205.433 257.018C204.088 256.794 202.546 256.941 199.466 257.234C198.656 257.332 197.841 257.387 197.024 257.399C195.643 257.372 194.28 257.07 193.017 256.51C192.282 256.154 191.566 255.76 190.873 255.328C188.205 253.762 186.87 252.977 185.554 252.611C184.052 252.192 182.476 252.116 180.94 252.386C179.405 252.657 177.95 253.268 176.682 254.175C175.571 254.969 174.585 256.164 172.613 258.548ZM199.591 273.22C200.271 273.697 200.733 274.424 200.878 275.242C201.022 276.059 200.836 276.9 200.36 277.581L180.027 306.624C179.8 306.981 179.502 307.289 179.153 307.528C178.804 307.768 178.41 307.934 177.995 308.017C177.579 308.1 177.152 308.098 176.737 308.011C176.323 307.924 175.93 307.754 175.583 307.511C175.236 307.268 174.942 306.957 174.719 306.598C174.495 306.238 174.347 305.837 174.283 305.418C174.219 305 174.24 304.572 174.346 304.162C174.452 303.752 174.639 303.368 174.897 303.032L195.228 273.994C195.705 273.314 196.432 272.852 197.249 272.708C198.067 272.564 198.908 272.75 199.588 273.225M203.837 298.054C204.03 299.145 203.781 300.268 203.145 301.176C202.51 302.083 201.54 302.701 200.449 302.894C199.358 303.086 198.235 302.837 197.327 302.202C196.42 301.566 195.802 300.596 195.61 299.505C195.417 298.414 195.666 297.291 196.302 296.384C196.937 295.476 197.907 294.859 198.998 294.666C200.089 294.474 201.212 294.723 202.12 295.358C203.027 295.994 203.645 296.963 203.837 298.054ZM176.253 285.952C177.344 285.76 178.314 285.142 178.949 284.234C179.585 283.327 179.833 282.204 179.641 281.113C179.449 280.022 178.831 279.052 177.923 278.416C177.016 277.781 175.893 277.532 174.802 277.724C173.711 277.917 172.741 278.535 172.105 279.442C171.47 280.35 171.221 281.473 171.413 282.564C171.606 283.655 172.224 284.625 173.131 285.26C174.039 285.895 175.161 286.144 176.253 285.952Z" fill="white"/>
<path fill-rule="evenodd" clip-rule="evenodd" d="M277.988 239.968C277.484 240.61 276.947 241.226 276.378 241.811C275.382 242.769 274.204 243.516 272.916 244.017C272.356 244.233 271.758 244.389 270.565 244.697C267.571 245.475 266.072 245.865 264.884 246.535C263.526 247.301 262.356 248.362 261.462 249.639C260.567 250.917 259.971 252.378 259.716 253.917C259.491 255.262 259.638 256.804 259.931 259.883C260.029 260.694 260.084 261.509 260.096 262.325C260.066 263.706 259.766 265.069 259.207 266.332C258.964 266.883 258.651 267.416 258.025 268.476C256.459 271.145 255.674 272.479 255.308 273.795C254.464 276.837 255.039 280.097 256.872 282.667C257.666 283.778 258.86 284.764 261.245 286.736C262.196 287.518 262.672 287.911 263.089 288.346C264.046 289.342 264.793 290.52 265.294 291.807C265.51 292.367 265.666 292.965 265.975 294.158C266.753 297.152 267.142 298.651 267.813 299.839C268.579 301.197 269.639 302.366 270.917 303.261C272.194 304.155 273.656 304.752 275.194 305.007C276.54 305.231 278.081 305.084 281.161 304.792C282.388 304.673 283.003 304.615 283.603 304.627C284.985 304.657 286.348 304.96 287.611 305.515C288.162 305.758 288.694 306.071 289.754 306.697C292.423 308.263 293.758 309.048 295.073 309.414C298.115 310.258 301.376 309.683 303.946 307.85C305.057 307.056 306.042 305.862 308.015 303.477C308.797 302.526 309.19 302.05 309.625 301.634C310.621 300.676 311.799 299.929 313.087 299.428C313.647 299.212 314.245 299.056 315.437 298.748C318.432 297.97 319.931 297.58 321.118 296.909C322.477 296.144 323.646 295.083 324.541 293.806C325.435 292.528 326.032 291.067 326.287 289.528C326.511 288.183 326.364 286.641 326.071 283.561C325.953 282.335 325.895 281.72 325.907 281.12C325.937 279.738 326.24 278.375 326.795 277.112C327.038 276.561 327.351 276.029 327.977 274.969C329.543 272.3 330.328 270.966 330.695 269.65C331.538 266.608 330.963 263.348 329.13 260.778C328.336 259.667 327.142 258.681 324.758 256.709C324.115 256.206 323.499 255.668 322.914 255.099C321.956 254.103 321.206 252.927 320.708 251.637C320.44 250.866 320.213 250.082 320.028 249.287C319.25 246.293 318.86 244.794 318.19 243.606C317.424 242.248 316.363 241.078 315.086 240.184C313.808 239.29 312.347 238.693 310.808 238.438C309.463 238.214 307.921 238.36 304.841 238.653C304.031 238.751 303.216 238.806 302.399 238.818C301.018 238.791 299.655 238.489 298.392 237.93C297.657 237.574 296.941 237.179 296.248 236.748C293.58 235.182 292.245 234.397 290.929 234.03C289.427 233.612 287.851 233.535 286.315 233.806C284.78 234.076 283.325 234.688 282.057 235.595C280.946 236.389 279.96 237.583 277.988 239.968ZM304.966 254.64C305.646 255.117 306.108 255.844 306.253 256.661C306.397 257.478 306.211 258.32 305.735 259L285.402 288.043C285.175 288.4 284.877 288.708 284.528 288.948C284.179 289.187 283.785 289.353 283.37 289.436C282.954 289.519 282.527 289.517 282.112 289.43C281.698 289.343 281.305 289.173 280.958 288.93C280.611 288.687 280.317 288.377 280.094 288.017C279.87 287.657 279.722 287.256 279.658 286.838C279.594 286.419 279.615 285.992 279.721 285.582C279.827 285.172 280.014 284.787 280.272 284.452L300.603 255.413C301.08 254.734 301.807 254.271 302.624 254.127C303.442 253.983 304.283 254.169 304.963 254.644M309.212 279.474C309.405 280.565 309.156 281.688 308.52 282.595C307.885 283.503 306.915 284.121 305.824 284.313C304.733 284.505 303.61 284.256 302.702 283.621C301.795 282.986 301.177 282.016 300.985 280.925C300.792 279.834 301.041 278.711 301.677 277.803C302.312 276.896 303.282 276.278 304.373 276.086C305.464 275.893 306.587 276.142 307.495 276.778C308.402 277.413 309.02 278.383 309.212 279.474ZM281.628 267.371C282.719 267.179 283.689 266.561 284.324 265.654C284.96 264.746 285.208 263.623 285.016 262.532C284.824 261.441 284.206 260.471 283.298 259.836C282.391 259.2 281.268 258.952 280.177 259.144C279.086 259.336 278.116 259.954 277.48 260.862C276.845 261.769 276.596 262.892 276.788 263.983C276.981 265.074 277.599 266.044 278.506 266.679C279.414 267.315 280.536 267.564 281.628 267.371Z" fill="white"/>
<path fill-rule="evenodd" clip-rule="evenodd" d="M383.362 221.387C382.858 222.03 382.321 222.645 381.752 223.231C380.756 224.189 379.578 224.936 378.29 225.436C377.73 225.652 377.132 225.809 375.939 226.117C372.945 226.895 371.446 227.284 370.258 227.955C368.9 228.721 367.73 229.782 366.836 231.059C365.941 232.336 365.345 233.798 365.09 235.336C364.865 236.682 365.012 238.223 365.305 241.303C365.403 242.114 365.458 242.929 365.47 243.745C365.44 245.126 365.14 246.489 364.581 247.752C364.338 248.303 364.025 248.835 363.399 249.896C361.833 252.564 361.048 253.899 360.682 255.215C359.838 258.256 360.413 261.517 362.246 264.087C363.04 265.198 364.234 266.183 366.619 268.155C367.57 268.938 368.046 269.331 368.463 269.765C369.42 270.761 370.167 271.939 370.668 273.227C370.884 273.787 371.041 274.385 371.349 275.578C372.127 278.572 372.516 280.071 373.187 281.258C373.953 282.617 375.013 283.786 376.291 284.681C377.568 285.575 379.03 286.172 380.568 286.427C381.914 286.651 383.455 286.504 386.535 286.211C387.762 286.093 388.377 286.035 388.977 286.047C390.359 286.077 391.722 286.38 392.985 286.935C393.536 287.178 394.068 287.491 395.128 288.117C397.797 289.683 399.132 290.468 400.447 290.834C403.489 291.678 406.75 291.103 409.32 289.27C410.431 288.476 411.416 287.281 413.389 284.897C414.171 283.946 414.564 283.47 414.999 283.053C415.995 282.096 417.173 281.349 418.461 280.848C419.021 280.632 419.619 280.475 420.811 280.167C423.806 279.389 425.305 279 426.492 278.329C427.851 277.563 429.02 276.503 429.915 275.225C430.809 273.948 431.406 272.486 431.661 270.948C431.885 269.603 431.738 268.061 431.445 264.981C431.327 263.755 431.269 263.14 431.281 262.539C431.311 261.158 431.614 259.795 432.169 258.532C432.412 257.981 432.725 257.449 433.351 256.389C434.917 253.72 435.703 252.385 436.069 251.07C436.912 248.028 436.337 244.767 434.504 242.198C433.71 241.087 432.516 240.101 430.132 238.129C429.489 237.625 428.873 237.088 428.288 236.519C427.33 235.523 426.58 234.346 426.082 233.057C425.814 232.286 425.587 231.501 425.402 230.706C424.624 227.712 424.234 226.213 423.564 225.026C422.798 223.667 421.737 222.498 420.46 221.604C419.182 220.709 417.721 220.113 416.182 219.857C414.837 219.633 413.295 219.78 410.215 220.073C409.405 220.171 408.59 220.226 407.773 220.238C406.392 220.211 405.029 219.909 403.766 219.349C403.031 218.994 402.315 218.599 401.622 218.167C398.954 216.601 397.619 215.816 396.303 215.45C394.801 215.031 393.225 214.955 391.69 215.225C390.154 215.496 388.699 216.108 387.431 217.015C386.32 217.809 385.334 219.003 383.362 221.387ZM410.34 236.06C411.02 236.536 411.482 237.263 411.627 238.081C411.771 238.898 411.585 239.739 411.109 240.42L390.776 269.463C390.549 269.82 390.251 270.128 389.902 270.367C389.553 270.607 389.159 270.773 388.744 270.856C388.328 270.939 387.901 270.937 387.486 270.85C387.072 270.763 386.679 270.593 386.332 270.35C385.986 270.107 385.691 269.796 385.468 269.437C385.244 269.077 385.096 268.676 385.032 268.257C384.968 267.839 384.989 267.411 385.095 267.001C385.201 266.591 385.388 266.207 385.646 265.871L405.977 236.833C406.454 236.153 407.181 235.691 407.998 235.547C408.816 235.403 409.657 235.589 410.337 236.064M414.586 260.894C414.779 261.985 414.53 263.107 413.894 264.015C413.259 264.922 412.289 265.54 411.198 265.733C410.107 265.925 408.984 265.676 408.076 265.041C407.169 264.405 406.551 263.435 406.359 262.344C406.166 261.253 406.415 260.131 407.051 259.223C407.686 258.316 408.656 257.698 409.747 257.505C410.838 257.313 411.961 257.562 412.869 258.197C413.776 258.833 414.394 259.803 414.586 260.894ZM387.002 248.791C388.093 248.599 389.063 247.981 389.698 247.073C390.334 246.166 390.582 245.043 390.39 243.952C390.198 242.861 389.58 241.891 388.672 241.256C387.765 240.62 386.642 240.371 385.551 240.564C384.46 240.756 383.49 241.374 382.854 242.281C382.219 243.189 381.97 244.312 382.162 245.403C382.355 246.494 382.973 247.464 383.88 248.099C384.788 248.734 385.911 248.983 387.002 248.791Z" fill="white"/>
<path fill-rule="evenodd" clip-rule="evenodd" d="M85.819 382.503C85.3152 383.145 84.7778 383.761 84.2089 384.346C83.2127 385.304 82.0348 386.051 80.7469 386.552C80.1869 386.768 79.5889 386.924 78.3961 387.232C75.4018 388.01 73.9028 388.4 72.7152 389.071C71.3568 389.836 70.1874 390.897 69.2929 392.174C68.3985 393.452 67.8017 394.913 67.5466 396.452C67.3224 397.797 67.4692 399.339 67.762 402.419C67.86 403.229 67.915 404.044 67.9267 404.86C67.8966 406.242 67.5973 407.604 67.0382 408.868C66.7953 409.419 66.4825 409.951 65.8563 411.011C64.29 413.68 63.505 415.014 63.1388 416.33C62.2951 419.372 62.87 422.632 64.7032 425.202C65.4972 426.313 66.6914 427.299 69.076 429.271C70.0271 430.053 70.503 430.446 70.9198 430.881C71.8773 431.877 72.6245 433.055 73.1252 434.343C73.3413 434.903 73.4975 435.501 73.8056 436.693C74.5837 439.687 74.9732 441.186 75.6439 442.374C76.4098 443.732 77.4704 444.902 78.7479 445.796C80.0253 446.69 81.487 447.287 83.0254 447.542C84.3707 447.766 85.9125 447.62 88.9924 447.327C90.2186 447.208 90.8339 447.151 91.4341 447.162C92.8156 447.192 94.1787 447.495 95.4416 448.05C95.9927 448.293 96.5248 448.606 97.5852 449.232C100.254 450.798 101.589 451.583 102.904 451.95C105.946 452.793 109.207 452.218 111.777 450.385C112.888 449.591 113.873 448.397 115.846 446.012C116.628 445.061 117.021 444.585 117.456 444.169C118.452 443.211 119.63 442.464 120.918 441.963C121.478 441.747 122.076 441.591 123.268 441.283C126.263 440.505 127.762 440.115 128.949 439.445C130.308 438.679 131.477 437.618 132.372 436.341C133.266 435.063 133.863 433.602 134.118 432.063C134.342 430.718 134.195 429.176 133.903 426.097C133.784 424.87 133.726 424.255 133.738 423.655C133.768 422.274 134.071 420.91 134.626 419.648C134.869 419.097 135.182 418.564 135.808 417.504C137.375 414.835 138.16 413.501 138.526 412.185C139.369 409.143 138.795 405.883 136.961 403.313C136.167 402.202 134.973 401.216 132.589 399.244C131.946 398.741 131.33 398.203 130.745 397.634C129.787 396.639 129.037 395.462 128.539 394.173C128.271 393.402 128.044 392.617 127.859 391.822C127.081 388.828 126.691 387.329 126.021 386.141C125.255 384.783 124.194 383.614 122.917 382.719C121.639 381.825 120.178 381.228 118.639 380.973C117.294 380.749 115.752 380.896 112.672 381.188C111.862 381.286 111.047 381.341 110.23 381.353C108.849 381.326 107.486 381.024 106.223 380.465C105.488 380.109 104.772 379.714 104.079 379.283C101.411 377.717 100.076 376.932 98.7603 376.566C97.2585 376.147 95.6819 376.07 94.1465 376.341C92.6112 376.612 91.156 377.223 89.8879 378.13C88.7769 378.924 87.7911 380.118 85.819 382.503ZM112.797 397.175C113.477 397.652 113.939 398.379 114.084 399.196C114.228 400.014 114.042 400.855 113.566 401.535L93.2326 430.578C93.0056 430.936 92.7085 431.243 92.3593 431.483C92.01 431.722 91.6159 431.888 91.2006 431.971C90.7854 432.054 90.3576 432.052 89.9432 431.965C89.5288 431.878 89.1363 431.708 88.7894 431.465C88.4425 431.222 88.1485 430.912 87.925 430.552C87.7015 430.192 87.5533 429.791 87.4892 429.373C87.425 428.954 87.4464 428.527 87.552 428.117C87.6576 427.707 87.8452 427.322 88.1034 426.987L108.434 397.948C108.911 397.269 109.638 396.806 110.455 396.662C111.273 396.518 112.114 396.704 112.794 397.18M117.043 422.009C117.236 423.1 116.987 424.223 116.351 425.13C115.716 426.038 114.746 426.656 113.655 426.848C112.564 427.041 111.441 426.792 110.533 426.156C109.626 425.521 109.008 424.551 108.816 423.46C108.623 422.369 108.872 421.246 109.508 420.339C110.143 419.431 111.113 418.813 112.204 418.621C113.295 418.428 114.418 418.677 115.326 419.313C116.233 419.948 116.851 420.918 117.043 422.009ZM89.4586 409.906C90.5497 409.714 91.5197 409.096 92.1551 408.189C92.7906 407.281 93.0395 406.158 92.8471 405.067C92.6548 403.976 92.0368 403.006 91.1293 402.371C90.2218 401.736 89.099 401.487 88.0079 401.679C86.9168 401.871 85.9469 402.489 85.3114 403.397C84.6759 404.304 84.427 405.427 84.6194 406.518C84.8117 407.609 85.4297 408.579 86.3372 409.215C87.2447 409.85 88.3675 410.099 89.4586 409.906Z" fill="white"/>
<path fill-rule="evenodd" clip-rule="evenodd" d="M191.194 363.922C190.69 364.565 190.153 365.18 189.584 365.766C188.588 366.724 187.41 367.471 186.122 367.972C185.562 368.188 184.964 368.344 183.771 368.652C180.777 369.43 179.278 369.82 178.09 370.49C176.732 371.256 175.562 372.317 174.668 373.594C173.773 374.872 173.177 376.333 172.922 377.872C172.697 379.217 172.844 380.759 173.137 383.838C173.235 384.649 173.29 385.464 173.302 386.28C173.272 387.661 172.972 389.024 172.413 390.287C172.17 390.838 171.858 391.37 171.231 392.431C169.665 395.099 168.88 396.434 168.514 397.75C167.67 400.791 168.245 404.052 170.078 406.622C170.872 407.733 172.066 408.718 174.451 410.69C175.402 411.473 175.878 411.866 176.295 412.3C177.252 413.297 178 414.474 178.5 415.762C178.716 416.322 178.873 416.92 179.181 418.113C179.959 421.107 180.348 422.606 181.019 423.794C181.785 425.152 182.845 426.321 184.123 427.216C185.4 428.11 186.862 428.707 188.4 428.962C189.746 429.186 191.287 429.039 194.367 428.746C195.594 428.628 196.209 428.57 196.809 428.582C198.191 428.612 199.554 428.915 200.817 429.47C201.368 429.713 201.9 430.026 202.96 430.652C205.629 432.218 206.964 433.003 208.279 433.369C211.321 434.213 214.582 433.638 217.152 431.805C218.263 431.011 219.248 429.817 221.221 427.432C222.003 426.481 222.396 426.005 222.831 425.588C223.827 424.631 225.005 423.884 226.293 423.383C226.853 423.167 227.451 423.011 228.643 422.703C231.638 421.924 233.137 421.535 234.324 420.864C235.683 420.098 236.852 419.038 237.747 417.76C238.641 416.483 239.238 415.021 239.493 413.483C239.717 412.138 239.57 410.596 239.278 407.516C239.159 406.29 239.101 405.675 239.113 405.075C239.143 403.693 239.446 402.33 240.001 401.067C240.244 400.516 240.557 399.984 241.183 398.924C242.75 396.255 243.535 394.92 243.901 393.605C244.744 390.563 244.17 387.302 242.336 384.733C241.542 383.622 240.348 382.636 237.964 380.664C237.321 380.16 236.705 379.623 236.12 379.054C235.162 378.058 234.412 376.881 233.914 375.592C233.646 374.821 233.419 374.037 233.234 373.242C232.456 370.247 232.066 368.748 231.396 367.561C230.63 366.203 229.569 365.033 228.292 364.139C227.014 363.244 225.553 362.648 224.014 362.393C222.669 362.169 221.127 362.315 218.047 362.608C217.237 362.706 216.422 362.761 215.605 362.773C214.224 362.746 212.861 362.444 211.598 361.884C210.863 361.529 210.147 361.134 209.454 360.703C206.786 359.136 205.451 358.351 204.135 357.985C202.633 357.567 201.057 357.49 199.522 357.761C197.986 358.031 196.531 358.643 195.263 359.55C194.152 360.344 193.166 361.538 191.194 363.922ZM218.172 378.595C218.852 379.072 219.314 379.798 219.459 380.616C219.603 381.433 219.417 382.274 218.941 382.955L198.608 411.998C198.381 412.355 198.084 412.663 197.734 412.902C197.385 413.142 196.991 413.308 196.576 413.391C196.16 413.474 195.733 413.472 195.318 413.385C194.904 413.298 194.511 413.128 194.164 412.885C193.818 412.642 193.523 412.331 193.3 411.972C193.077 411.612 192.928 411.211 192.864 410.792C192.8 410.374 192.821 409.947 192.927 409.537C193.033 409.126 193.22 408.742 193.478 408.407L213.809 379.368C214.286 378.689 215.013 378.226 215.83 378.082C216.648 377.938 217.489 378.124 218.169 378.599M222.418 403.429C222.611 404.52 222.362 405.643 221.726 406.55C221.091 407.458 220.121 408.075 219.03 408.268C217.939 408.46 216.816 408.211 215.908 407.576C215.001 406.94 214.383 405.971 214.191 404.879C213.998 403.788 214.247 402.666 214.883 401.758C215.518 400.851 216.488 400.233 217.579 400.04C218.67 399.848 219.793 400.097 220.701 400.732C221.608 401.368 222.226 402.338 222.418 403.429ZM194.834 391.326C195.925 391.134 196.895 390.516 197.53 389.608C198.166 388.701 198.415 387.578 198.222 386.487C198.03 385.396 197.412 384.426 196.504 383.791C195.597 383.155 194.474 382.906 193.383 383.099C192.292 383.291 191.322 383.909 190.686 384.817C190.051 385.724 189.802 386.847 189.994 387.938C190.187 389.029 190.805 389.999 191.712 390.634C192.62 391.27 193.743 391.519 194.834 391.326Z" fill="white"/>
<path fill-rule="evenodd" clip-rule="evenodd" d="M296.568 345.342C296.064 345.985 295.527 346.6 294.958 347.186C293.962 348.143 292.784 348.891 291.496 349.391C290.936 349.607 290.338 349.764 289.145 350.072C286.151 350.85 284.652 351.239 283.464 351.91C282.106 352.676 280.936 353.736 280.042 355.014C279.147 356.291 278.551 357.753 278.296 359.291C278.071 360.636 278.218 362.178 278.511 365.258C278.609 366.068 278.664 366.883 278.676 367.7C278.646 369.081 278.346 370.443 277.787 371.707C277.544 372.258 277.232 372.79 276.605 373.85C275.039 376.519 274.254 377.854 273.888 379.169C273.044 382.211 273.619 385.472 275.452 388.041C276.246 389.152 277.44 390.138 279.825 392.11C280.776 392.892 281.252 393.285 281.669 393.72C282.626 394.716 283.374 395.894 283.874 397.182C284.09 397.742 284.247 398.34 284.555 399.533C285.333 402.527 285.722 404.026 286.393 405.213C287.159 406.572 288.219 407.741 289.497 408.635C290.774 409.53 292.236 410.126 293.774 410.382C295.12 410.606 296.662 410.459 299.741 410.166C300.968 410.048 301.583 409.99 302.183 410.001C303.565 410.031 304.928 410.334 306.191 410.89C306.742 411.133 307.274 411.445 308.334 412.072C311.003 413.638 312.338 414.423 313.653 414.789C316.695 415.633 319.956 415.058 322.526 413.224C323.637 412.43 324.622 411.236 326.595 408.852C327.377 407.901 327.77 407.425 328.205 407.008C329.201 406.051 330.379 405.303 331.667 404.803C332.227 404.587 332.825 404.43 334.017 404.122C337.012 403.344 338.511 402.955 339.698 402.284C341.057 401.518 342.226 400.457 343.121 399.18C344.015 397.903 344.612 396.441 344.867 394.903C345.091 393.557 344.944 392.016 344.652 388.936C344.533 387.71 344.475 387.094 344.487 386.494C344.517 385.113 344.82 383.75 345.375 382.487C345.618 381.936 345.931 381.404 346.557 380.343C348.124 377.675 348.909 376.34 349.275 375.024C350.118 371.983 349.544 368.722 347.71 366.152C346.916 365.042 345.722 364.056 343.338 362.084C342.695 361.58 342.08 361.043 341.494 360.474C340.536 359.478 339.786 358.301 339.288 357.012C339.02 356.241 338.793 355.456 338.608 354.661C337.83 351.667 337.44 350.168 336.77 348.981C336.004 347.622 334.943 346.453 333.666 345.559C332.388 344.664 330.927 344.067 329.388 343.812C328.043 343.588 326.501 343.735 323.421 344.028C322.611 344.126 321.796 344.181 320.979 344.193C319.598 344.166 318.235 343.864 316.972 343.304C316.237 342.948 315.522 342.554 314.828 342.122C312.16 340.556 310.825 339.771 309.509 339.405C308.007 338.986 306.431 338.91 304.896 339.18C303.36 339.451 301.905 340.062 300.637 340.969C299.526 341.763 298.54 342.958 296.568 345.342ZM323.546 360.014C324.226 360.491 324.688 361.218 324.833 362.036C324.977 362.853 324.791 363.694 324.315 364.375L303.982 393.418C303.755 393.775 303.458 394.083 303.108 394.322C302.759 394.562 302.365 394.728 301.95 394.811C301.534 394.894 301.107 394.892 300.692 394.805C300.278 394.718 299.885 394.548 299.538 394.305C299.192 394.062 298.898 393.751 298.674 393.391C298.451 393.032 298.302 392.631 298.238 392.212C298.174 391.794 298.195 391.366 298.301 390.956C298.407 390.546 298.594 390.162 298.852 389.826L319.183 360.788C319.66 360.108 320.387 359.646 321.204 359.502C322.022 359.357 322.863 359.543 323.543 360.019M327.792 384.848C327.985 385.939 327.736 387.062 327.1 387.97C326.465 388.877 325.495 389.495 324.404 389.688C323.313 389.88 322.19 389.631 321.282 388.996C320.375 388.36 319.757 387.39 319.565 386.299C319.372 385.208 319.621 384.085 320.257 383.178C320.892 382.27 321.862 381.652 322.953 381.46C324.044 381.268 325.167 381.517 326.075 382.152C326.982 382.787 327.6 383.757 327.792 384.848ZM300.208 372.746C301.299 372.553 302.269 371.936 302.904 371.028C303.54 370.121 303.789 368.998 303.596 367.907C303.404 366.816 302.786 365.846 301.878 365.21C300.971 364.575 299.848 364.326 298.757 364.518C297.666 364.711 296.696 365.329 296.06 366.236C295.425 367.144 295.176 368.266 295.368 369.358C295.561 370.449 296.179 371.418 297.086 372.054C297.994 372.689 299.117 372.938 300.208 372.746Z" fill="white"/>
<path fill-rule="evenodd" clip-rule="evenodd" d="M401.943 326.762C401.439 327.404 400.902 328.02 400.333 328.605C399.337 329.563 398.159 330.31 396.871 330.811C396.311 331.027 395.713 331.183 394.52 331.491C391.526 332.269 390.027 332.659 388.839 333.33C387.481 334.095 386.311 335.156 385.417 336.434C384.522 337.711 383.926 339.173 383.671 340.711C383.446 342.056 383.593 343.598 383.886 346.678C383.984 347.488 384.039 348.303 384.051 349.119C384.021 350.501 383.721 351.863 383.162 353.127C382.919 353.678 382.607 354.21 381.98 355.27C380.414 357.939 379.629 359.274 379.263 360.589C378.419 363.631 378.994 366.891 380.827 369.461C381.621 370.572 382.815 371.558 385.2 373.53C386.151 374.312 386.627 374.705 387.044 375.14C388.001 376.136 388.749 377.314 389.249 378.602C389.465 379.162 389.622 379.76 389.93 380.952C390.708 383.946 391.097 385.445 391.768 386.633C392.534 387.991 393.594 389.161 394.872 390.055C396.149 390.949 397.611 391.546 399.149 391.801C400.495 392.025 402.037 391.879 405.116 391.586C406.343 391.467 406.958 391.41 407.558 391.421C408.94 391.451 410.303 391.754 411.566 392.309C412.117 392.552 412.649 392.865 413.709 393.491C416.378 395.057 417.713 395.842 419.028 396.209C422.07 397.052 425.331 396.477 427.901 394.644C429.012 393.85 429.997 392.656 431.97 390.271C432.752 389.32 433.145 388.844 433.58 388.428C434.576 387.47 435.754 386.723 437.042 386.222C437.602 386.006 438.2 385.85 439.392 385.542C442.387 384.764 443.886 384.374 445.073 383.704C446.432 382.938 447.601 381.877 448.496 380.6C449.39 379.322 449.987 377.861 450.242 376.322C450.466 374.977 450.319 373.435 450.027 370.356C449.908 369.129 449.85 368.514 449.862 367.914C449.892 366.533 450.195 365.169 450.75 363.907C450.993 363.356 451.306 362.823 451.932 361.763C453.499 359.094 454.284 357.76 454.65 356.444C455.493 353.402 454.919 350.142 453.085 347.572C452.291 346.461 451.097 345.476 448.713 343.503C448.07 343 447.455 342.462 446.869 341.893C445.911 340.898 445.161 339.721 444.663 338.432C444.395 337.661 444.168 336.876 443.983 336.081C443.205 333.087 442.815 331.588 442.145 330.4C441.379 329.042 440.318 327.873 439.041 326.978C437.763 326.084 436.302 325.487 434.763 325.232C433.418 325.008 431.876 325.155 428.796 325.447C427.986 325.545 427.171 325.6 426.354 325.612C424.973 325.585 423.61 325.283 422.347 324.724C421.612 324.368 420.897 323.974 420.203 323.542C417.535 321.976 416.2 321.191 414.884 320.825C413.382 320.406 411.806 320.329 410.271 320.6C408.735 320.871 407.28 321.482 406.012 322.389C404.901 323.183 403.915 324.377 401.943 326.762ZM428.921 341.434C429.601 341.911 430.063 342.638 430.208 343.455C430.352 344.273 430.166 345.114 429.69 345.794L409.357 374.837C409.13 375.195 408.833 375.502 408.483 375.742C408.134 375.981 407.74 376.148 407.325 376.23C406.909 376.313 406.482 376.311 406.067 376.224C405.653 376.137 405.26 375.967 404.913 375.724C404.567 375.481 404.273 375.171 404.049 374.811C403.826 374.452 403.677 374.05 403.613 373.632C403.549 373.213 403.57 372.786 403.676 372.376C403.782 371.966 403.969 371.581 404.227 371.246L424.558 342.207C425.035 341.528 425.762 341.065 426.579 340.921C427.397 340.777 428.238 340.963 428.918 341.439M433.167 366.268C433.36 367.359 433.111 368.482 432.475 369.389C431.84 370.297 430.87 370.915 429.779 371.107C428.688 371.3 427.565 371.051 426.657 370.415C425.75 369.78 425.132 368.81 424.94 367.719C424.747 366.628 424.996 365.505 425.632 364.598C426.267 363.69 427.237 363.072 428.328 362.88C429.419 362.687 430.542 362.936 431.45 363.572C432.357 364.207 432.975 365.177 433.167 366.268ZM405.583 354.166C406.674 353.973 407.644 353.355 408.279 352.448C408.915 351.54 409.164 350.417 408.971 349.326C408.779 348.235 408.161 347.265 407.253 346.63C406.346 345.995 405.223 345.746 404.132 345.938C403.041 346.13 402.071 346.748 401.435 347.656C400.8 348.563 400.551 349.686 400.743 350.777C400.936 351.868 401.554 352.838 402.461 353.474C403.369 354.109 404.492 354.358 405.583 354.166Z" fill="white"/>
<path fill-rule="evenodd" clip-rule="evenodd" d="M104.4 487.877C103.896 488.52 103.359 489.135 102.79 489.721C101.794 490.678 100.616 491.426 99.328 491.926C98.7679 492.142 98.1699 492.299 96.9771 492.607C93.9829 493.385 92.4838 493.774 91.2963 494.445C89.9379 495.211 88.7685 496.272 87.874 497.549C86.9795 498.826 86.3828 500.288 86.1276 501.826C85.9035 503.172 86.0503 504.713 86.3431 507.793C86.4411 508.604 86.4961 509.419 86.5078 510.235C86.4777 511.616 86.1784 512.979 85.6193 514.242C85.3763 514.793 85.0636 515.325 84.4374 516.386C82.8711 519.054 82.0861 520.389 81.7199 521.705C80.8762 524.746 81.4511 528.007 83.2842 530.577C84.0783 531.688 85.2725 532.673 87.657 534.645C88.6081 535.428 89.084 535.821 89.5008 536.255C90.4584 537.251 91.2056 538.429 91.7063 539.717C91.9223 540.277 92.0786 540.875 92.3866 542.068C93.1648 545.062 93.5542 546.561 94.2249 547.748C94.9908 549.107 96.0515 550.276 97.3289 551.171C98.6063 552.065 100.068 552.662 101.606 552.917C102.952 553.141 104.494 552.994 107.573 552.701C108.8 552.583 109.415 552.525 110.015 552.537C111.397 552.567 112.76 552.87 114.023 553.425C114.574 553.668 115.106 553.981 116.166 554.607C118.835 556.173 120.17 556.958 121.485 557.324C124.527 558.168 127.788 557.593 130.358 555.76C131.469 554.966 132.454 553.771 134.427 551.387C135.209 550.436 135.602 549.96 136.037 549.543C137.033 548.586 138.211 547.839 139.499 547.338C140.059 547.122 140.657 546.965 141.85 546.657C144.844 545.879 146.343 545.49 147.53 544.819C148.889 544.053 150.058 542.993 150.953 541.715C151.847 540.438 152.444 538.976 152.699 537.438C152.923 536.093 152.776 534.551 152.484 531.471C152.365 530.245 152.307 529.63 152.319 529.029C152.349 527.648 152.652 526.285 153.207 525.022C153.45 524.471 153.763 523.939 154.389 522.879C155.956 520.21 156.741 518.875 157.107 517.56C157.951 514.518 157.376 511.257 155.542 508.688C154.748 507.577 153.554 506.591 151.17 504.619C150.527 504.115 149.912 503.578 149.326 503.009C148.368 502.013 147.618 500.836 147.12 499.547C146.852 498.776 146.625 497.991 146.44 497.196C145.662 494.202 145.272 492.703 144.602 491.516C143.836 490.157 142.775 488.988 141.498 488.094C140.22 487.199 138.759 486.603 137.22 486.347C135.875 486.123 134.333 486.27 131.253 486.563C130.443 486.661 129.628 486.716 128.811 486.728C127.43 486.701 126.068 486.399 124.804 485.839C124.069 485.484 123.354 485.089 122.66 484.657C119.992 483.091 118.657 482.306 117.341 481.94C115.84 481.521 114.263 481.445 112.728 481.715C111.192 481.986 109.737 482.598 108.469 483.505C107.358 484.299 106.372 485.493 104.4 487.877ZM131.378 502.55C132.058 503.026 132.521 503.753 132.665 504.571C132.809 505.388 132.623 506.229 132.147 506.91L111.814 535.953C111.587 536.31 111.29 536.618 110.94 536.857C110.591 537.097 110.197 537.263 109.782 537.346C109.366 537.429 108.939 537.427 108.524 537.34C108.11 537.253 107.717 537.083 107.37 536.84C107.024 536.597 106.73 536.286 106.506 535.927C106.283 535.567 106.134 535.166 106.07 534.747C106.006 534.329 106.027 533.901 106.133 533.491C106.239 533.081 106.426 532.697 106.684 532.361L127.015 503.323C127.492 502.643 128.219 502.181 129.036 502.037C129.854 501.893 130.695 502.079 131.375 502.554M135.624 527.384C135.817 528.475 135.568 529.597 134.932 530.505C134.297 531.412 133.327 532.03 132.236 532.223C131.145 532.415 130.022 532.166 129.115 531.531C128.207 530.895 127.589 529.925 127.397 528.834C127.204 527.743 127.453 526.621 128.089 525.713C128.724 524.806 129.694 524.188 130.785 523.995C131.876 523.803 132.999 524.052 133.907 524.687C134.814 525.323 135.432 526.293 135.624 527.384ZM108.04 515.281C109.131 515.089 110.101 514.471 110.736 513.563C111.372 512.656 111.621 511.533 111.428 510.442C111.236 509.351 110.618 508.381 109.71 507.746C108.803 507.11 107.68 506.861 106.589 507.054C105.498 507.246 104.528 507.864 103.892 508.771C103.257 509.679 103.008 510.802 103.2 511.893C103.393 512.984 104.011 513.954 104.918 514.589C105.826 515.224 106.949 515.473 108.04 515.281Z" fill="white"/>
<path fill-rule="evenodd" clip-rule="evenodd" d="M209.774 469.297C209.27 469.94 208.733 470.555 208.164 471.141C207.168 472.098 205.99 472.845 204.702 473.346C204.142 473.562 203.544 473.718 202.351 474.026C199.357 474.805 197.858 475.194 196.67 475.865C195.312 476.631 194.142 477.691 193.248 478.969C192.354 480.246 191.757 481.708 191.502 483.246C191.278 484.591 191.424 486.133 191.717 489.213C191.815 490.023 191.87 490.838 191.882 491.654C191.852 493.036 191.552 494.398 190.993 495.662C190.75 496.213 190.438 496.745 189.811 497.805C188.245 500.474 187.46 501.809 187.094 503.124C186.25 506.166 186.825 509.427 188.658 511.996C189.452 513.107 190.646 514.093 193.031 516.065C193.982 516.847 194.458 517.24 194.875 517.675C195.832 518.671 196.58 519.849 197.08 521.137C197.296 521.697 197.453 522.295 197.761 523.487C198.539 526.482 198.928 527.981 199.599 529.168C200.365 530.526 201.426 531.696 202.703 532.59C203.98 533.485 205.442 534.081 206.98 534.336C208.326 534.561 209.868 534.414 212.947 534.121C214.174 534.002 214.789 533.945 215.389 533.956C216.771 533.986 218.134 534.289 219.397 534.845C219.948 535.088 220.48 535.4 221.54 536.026C224.209 537.593 225.544 538.378 226.859 538.744C229.901 539.587 233.162 539.012 235.732 537.179C236.843 536.385 237.828 535.191 239.801 532.807C240.583 531.856 240.976 531.38 241.411 530.963C242.407 530.005 243.585 529.258 244.873 528.757C245.433 528.541 246.031 528.385 247.224 528.077C250.218 527.299 251.717 526.91 252.904 526.239C254.263 525.473 255.432 524.412 256.327 523.135C257.221 521.858 257.818 520.396 258.073 518.857C258.297 517.512 258.15 515.971 257.858 512.891C257.739 511.665 257.681 511.049 257.693 510.449C257.723 509.068 258.026 507.705 258.581 506.442C258.824 505.891 259.137 505.359 259.763 504.298C261.33 501.63 262.115 500.295 262.481 498.979C263.325 495.938 262.75 492.677 260.916 490.107C260.122 488.996 258.928 488.011 256.544 486.039C255.901 485.535 255.286 484.997 254.7 484.429C253.742 483.433 252.992 482.256 252.494 480.967C252.226 480.196 251.999 479.411 251.814 478.616C251.036 475.622 250.646 474.123 249.976 472.935C249.21 471.577 248.149 470.408 246.872 469.513C245.594 468.619 244.133 468.022 242.594 467.767C241.249 467.543 239.707 467.69 236.627 467.983C235.817 468.081 235.002 468.136 234.186 468.147C232.804 468.121 231.442 467.819 230.178 467.259C229.443 466.903 228.728 466.509 228.034 466.077C225.366 464.511 224.031 463.726 222.715 463.36C221.214 462.941 219.637 462.864 218.102 463.135C216.566 463.406 215.111 464.017 213.843 464.924C212.732 465.718 211.746 466.912 209.774 469.297ZM236.753 483.969C237.432 484.446 237.895 485.173 238.039 485.99C238.183 486.808 237.997 487.649 237.521 488.329L217.188 517.372C216.961 517.73 216.664 518.038 216.314 518.277C215.965 518.516 215.571 518.683 215.156 518.766C214.74 518.848 214.313 518.846 213.898 518.759C213.484 518.672 213.091 518.502 212.744 518.26C212.398 518.017 212.104 517.706 211.88 517.346C211.657 516.987 211.508 516.585 211.444 516.167C211.38 515.748 211.401 515.321 211.507 514.911C211.613 514.501 211.8 514.117 212.059 513.781L232.389 484.743C232.866 484.063 233.593 483.601 234.41 483.456C235.228 483.312 236.069 483.498 236.749 483.974M240.998 508.803C241.191 509.894 240.942 511.017 240.306 511.925C239.671 512.832 238.701 513.45 237.61 513.642C236.519 513.835 235.396 513.586 234.489 512.95C233.581 512.315 232.963 511.345 232.771 510.254C232.578 509.163 232.827 508.04 233.463 507.133C234.098 506.225 235.068 505.607 236.159 505.415C237.25 505.223 238.373 505.471 239.281 506.107C240.188 506.742 240.806 507.712 240.998 508.803ZM213.414 496.701C214.505 496.508 215.475 495.89 216.11 494.983C216.746 494.075 216.995 492.953 216.802 491.862C216.61 490.771 215.992 489.801 215.084 489.165C214.177 488.53 213.054 488.281 211.963 488.473C210.872 488.666 209.902 489.284 209.266 490.191C208.631 491.099 208.382 492.221 208.574 493.312C208.767 494.403 209.385 495.373 210.292 496.009C211.2 496.644 212.323 496.893 213.414 496.701Z" fill="white"/>
<path fill-rule="evenodd" clip-rule="evenodd" d="M315.148 450.717C314.644 451.359 314.107 451.975 313.538 452.56C312.542 453.518 311.364 454.265 310.076 454.766C309.516 454.982 308.918 455.138 307.725 455.446C304.731 456.224 303.232 456.614 302.044 457.284C300.686 458.05 299.517 459.111 298.622 460.388C297.728 461.666 297.131 463.127 296.876 464.666C296.652 466.011 296.798 467.553 297.091 470.632C297.189 471.443 297.244 472.258 297.256 473.074C297.226 474.456 296.926 475.818 296.367 477.081C296.124 477.633 295.812 478.165 295.185 479.225C293.619 481.894 292.834 483.228 292.468 484.544C291.624 487.586 292.199 490.846 294.032 493.416C294.826 494.527 296.021 495.513 298.405 497.485C299.356 498.267 299.832 498.66 300.249 499.095C301.206 500.091 301.954 501.269 302.454 502.556C302.67 503.116 302.827 503.714 303.135 504.907C303.913 507.901 304.302 509.4 304.973 510.588C305.739 511.946 306.8 513.115 308.077 514.01C309.354 514.904 310.816 515.501 312.354 515.756C313.7 515.98 315.242 515.833 318.321 515.541C319.548 515.422 320.163 515.364 320.763 515.376C322.145 515.406 323.508 515.709 324.771 516.264C325.322 516.507 325.854 516.82 326.914 517.446C329.583 519.012 330.918 519.797 332.233 520.163C335.275 521.007 338.536 520.432 341.106 518.599C342.217 517.805 343.203 516.611 345.175 514.226C345.957 513.275 346.35 512.799 346.785 512.383C347.781 511.425 348.959 510.678 350.247 510.177C350.807 509.961 351.405 509.805 352.598 509.497C355.592 508.719 357.091 508.329 358.278 507.658C359.637 506.893 360.806 505.832 361.701 504.555C362.595 503.277 363.192 501.816 363.447 500.277C363.671 498.932 363.524 497.39 363.232 494.31C363.113 493.084 363.055 492.469 363.067 491.869C363.097 490.487 363.4 489.124 363.955 487.861C364.198 487.31 364.511 486.778 365.137 485.718C366.704 483.049 367.489 481.715 367.855 480.399C368.699 477.357 368.124 474.097 366.29 471.527C365.496 470.416 364.302 469.43 361.918 467.458C361.275 466.955 360.66 466.417 360.074 465.848C359.116 464.852 358.366 463.676 357.868 462.386C357.6 461.615 357.373 460.831 357.188 460.036C356.41 457.042 356.02 455.543 355.35 454.355C354.584 452.997 353.523 451.827 352.246 450.933C350.968 450.039 349.507 449.442 347.968 449.187C346.623 448.963 345.081 449.109 342.001 449.402C341.191 449.5 340.376 449.555 339.56 449.567C338.178 449.54 336.816 449.238 335.552 448.679C334.817 448.323 334.102 447.928 333.408 447.497C330.74 445.931 329.405 445.146 328.089 444.779C326.588 444.361 325.011 444.284 323.476 444.555C321.94 444.826 320.485 445.437 319.217 446.344C318.106 447.138 317.12 448.332 315.148 450.717ZM342.127 465.389C342.806 465.866 343.269 466.593 343.413 467.41C343.557 468.227 343.371 469.069 342.895 469.749L322.562 498.792C322.335 499.149 322.038 499.457 321.688 499.697C321.339 499.936 320.945 500.102 320.53 500.185C320.114 500.268 319.687 500.266 319.272 500.179C318.858 500.092 318.465 499.922 318.119 499.679C317.772 499.436 317.478 499.126 317.254 498.766C317.031 498.406 316.882 498.005 316.818 497.587C316.754 497.168 316.776 496.741 316.881 496.331C316.987 495.921 317.174 495.536 317.433 495.201L337.763 466.162C338.24 465.483 338.967 465.02 339.784 464.876C340.602 464.732 341.443 464.918 342.123 465.393M346.373 490.223C346.565 491.314 346.316 492.437 345.68 493.344C345.045 494.252 344.075 494.87 342.984 495.062C341.893 495.254 340.77 495.006 339.863 494.37C338.955 493.735 338.337 492.765 338.145 491.674C337.952 490.583 338.201 489.46 338.837 488.552C339.472 487.645 340.442 487.027 341.533 486.835C342.624 486.642 343.747 486.891 344.655 487.527C345.562 488.162 346.18 489.132 346.373 490.223ZM318.788 478.12C319.879 477.928 320.849 477.31 321.484 476.403C322.12 475.495 322.369 474.372 322.176 473.281C321.984 472.19 321.366 471.22 320.458 470.585C319.551 469.949 318.428 469.701 317.337 469.893C316.246 470.085 315.276 470.703 314.64 471.611C314.005 472.518 313.756 473.641 313.948 474.732C314.141 475.823 314.759 476.793 315.666 477.428C316.574 478.064 317.697 478.313 318.788 478.12Z" fill="white"/>
<path fill-rule="evenodd" clip-rule="evenodd" d="M420.523 432.136C420.019 432.779 419.482 433.394 418.913 433.98C417.917 434.938 416.739 435.685 415.451 436.185C414.891 436.401 414.293 436.558 413.1 436.866C410.106 437.644 408.607 438.033 407.419 438.704C406.061 439.47 404.892 440.531 403.997 441.808C403.103 443.085 402.506 444.547 402.251 446.085C402.027 447.431 402.173 448.972 402.466 452.052C402.564 452.863 402.619 453.678 402.631 454.494C402.601 455.875 402.301 457.238 401.742 458.501C401.499 459.052 401.187 459.584 400.56 460.645C398.994 463.313 398.209 464.648 397.843 465.964C396.999 469.005 397.574 472.266 399.407 474.836C400.201 475.947 401.396 476.932 403.78 478.904C404.731 479.687 405.207 480.08 405.624 480.514C406.581 481.51 407.329 482.688 407.829 483.976C408.045 484.536 408.202 485.134 408.51 486.327C409.288 489.321 409.677 490.82 410.348 492.007C411.114 493.366 412.175 494.535 413.452 495.43C414.729 496.324 416.191 496.921 417.729 497.176C419.075 497.4 420.617 497.253 423.696 496.96C424.923 496.842 425.538 496.784 426.138 496.796C427.52 496.826 428.883 497.129 430.146 497.684C430.697 497.927 431.229 498.24 432.289 498.866C434.958 500.432 436.293 501.217 437.608 501.583C440.65 502.427 443.911 501.852 446.481 500.019C447.592 499.225 448.578 498.03 450.55 495.646C451.332 494.695 451.725 494.219 452.16 493.802C453.156 492.845 454.334 492.098 455.622 491.597C456.182 491.381 456.78 491.225 457.973 490.916C460.967 490.138 462.466 489.749 463.653 489.078C465.012 488.312 466.181 487.252 467.076 485.974C467.97 484.697 468.567 483.235 468.822 481.697C469.046 480.352 468.899 478.81 468.607 475.73C468.488 474.504 468.43 473.889 468.442 473.288C468.472 471.907 468.775 470.544 469.33 469.281C469.573 468.73 469.886 468.198 470.512 467.138C472.079 464.469 472.864 463.134 473.23 461.819C474.074 458.777 473.499 455.516 471.665 452.947C470.871 451.836 469.677 450.85 467.293 448.878C466.65 448.374 466.035 447.837 465.449 447.268C464.491 446.272 463.741 445.095 463.243 443.806C462.975 443.035 462.748 442.25 462.563 441.455C461.785 438.461 461.395 436.962 460.725 435.775C459.959 434.416 458.898 433.247 457.621 432.353C456.343 431.458 454.882 430.862 453.343 430.606C451.998 430.382 450.456 430.529 447.376 430.822C446.566 430.92 445.751 430.975 444.935 430.987C443.553 430.96 442.191 430.658 440.927 430.098C440.192 429.743 439.477 429.348 438.783 428.916C436.115 427.35 434.78 426.565 433.464 426.199C431.963 425.781 430.386 425.704 428.851 425.974C427.315 426.245 425.86 426.857 424.592 427.764C423.481 428.558 422.495 429.752 420.523 432.136ZM447.502 446.809C448.181 447.285 448.644 448.012 448.788 448.83C448.932 449.647 448.746 450.488 448.27 451.169L427.937 480.212C427.71 480.569 427.413 480.877 427.063 481.116C426.714 481.356 426.32 481.522 425.905 481.605C425.489 481.688 425.062 481.686 424.647 481.599C424.233 481.512 423.84 481.342 423.494 481.099C423.147 480.856 422.853 480.545 422.629 480.186C422.406 479.826 422.257 479.425 422.193 479.006C422.129 478.588 422.151 478.16 422.256 477.75C422.362 477.34 422.549 476.956 422.808 476.62L443.138 447.582C443.615 446.902 444.342 446.44 445.159 446.296C445.977 446.152 446.818 446.338 447.498 446.813M451.748 471.643C451.94 472.734 451.691 473.856 451.055 474.764C450.42 475.671 449.45 476.289 448.359 476.482C447.268 476.674 446.145 476.425 445.238 475.79C444.33 475.154 443.712 474.184 443.52 473.093C443.327 472.002 443.576 470.88 444.212 469.972C444.847 469.065 445.817 468.447 446.908 468.254C447.999 468.062 449.122 468.311 450.03 468.946C450.937 469.582 451.555 470.552 451.748 471.643ZM424.163 459.54C425.254 459.348 426.224 458.73 426.859 457.822C427.495 456.915 427.744 455.792 427.551 454.701C427.359 453.61 426.741 452.64 425.833 452.005C424.926 451.369 423.803 451.12 422.712 451.313C421.621 451.505 420.651 452.123 420.015 453.03C419.38 453.938 419.131 455.061 419.323 456.152C419.516 457.243 420.134 458.213 421.041 458.848C421.949 459.484 423.072 459.732 424.163 459.54Z" fill="white"/>
</g>
<defs>
<filter id="filter0_f_6635_3811" x="-4" y="0.318115" width="527.218" height="561.386" filterUnits="userSpaceOnUse" color-interpolation-filters="sRGB">
<feFlood flood-opacity="0" result="BackgroundImageFix"/>
<feBlend mode="normal" in="SourceGraphic" in2="BackgroundImageFix" result="shape"/>
<feGaussianBlur stdDeviation="2" result="effect1_foregroundBlur_6635_3811"/>
</filter>
</defs>
</svg>
