<svg width="520" height="520" viewBox="0 0 520 520" fill="none" xmlns="http://www.w3.org/2000/svg">
<g opacity="0.15">
<path d="M85.5684 152.873L86.3293 157.188C86.7329 159.477 86.2107 161.833 84.8775 163.737C83.5444 165.641 81.5094 166.937 79.2204 167.341L70.5896 168.863C68.3006 169.266 65.945 168.744 64.041 167.411C62.1371 166.078 60.8407 164.043 60.437 161.754L59.6761 157.438L85.5684 152.873ZM41.6537 156.167C37.813 156.844 35.0645 152.536 37.3038 149.338L47.4503 134.837L40.762 133.849C40.0675 133.747 39.4077 133.479 38.8384 133.068C38.269 132.657 37.8067 132.116 37.4903 131.489C37.1739 130.862 37.0128 130.169 37.0205 129.466C37.0281 128.764 37.2044 128.075 37.5343 127.455L37.8103 127.001L48.5405 111.672L44.981 110.613C44.3603 110.428 43.7882 110.108 43.306 109.676C42.8237 109.243 42.4433 108.71 42.1921 108.113C41.9409 107.516 41.8251 106.87 41.8532 106.223C41.8812 105.576 42.0523 104.944 42.3541 104.371L42.6408 103.902L56.8586 83.5966C57.5252 82.6449 58.5425 81.9969 59.6868 81.7951C60.8311 81.5933 62.0087 81.8543 62.9606 82.5206L83.2658 96.7385C83.8341 97.1369 84.2996 97.6645 84.624 98.278C84.9485 98.8915 85.1226 99.5733 85.132 100.267C85.1414 100.961 84.9858 101.647 84.6781 102.269C84.3704 102.892 83.9193 103.432 83.362 103.845L80.375 106.058L95.7054 116.793C96.2799 117.196 96.7492 117.731 97.0739 118.353C97.3985 118.975 97.5691 119.666 97.5711 120.367C97.5732 121.069 97.4067 121.761 97.0857 122.385C96.7647 123.009 96.2986 123.547 95.7265 123.953L95.2739 124.237L89.3224 127.454L103.821 137.61C106.881 139.749 105.999 144.407 102.556 145.401L102.069 145.514L41.6537 156.167Z" fill="white"/>
</g>
<g opacity="0.15">
<path d="M194.56 133.655L195.321 137.97C195.724 140.259 195.202 142.615 193.869 144.519C192.536 146.423 190.501 147.719 188.212 148.123L179.581 149.645C177.292 150.048 174.936 149.526 173.032 148.193C171.128 146.86 169.832 144.825 169.428 142.536L168.667 138.22L194.56 133.655ZM150.645 136.949C146.804 137.626 144.056 133.318 146.295 130.12L156.442 115.619L149.753 114.631C149.059 114.529 148.399 114.261 147.83 113.85C147.26 113.439 146.798 112.898 146.482 112.271C146.165 111.644 146.004 110.95 146.012 110.248C146.019 109.546 146.196 108.857 146.526 108.237L146.802 107.783L157.532 92.4536L153.972 91.3948C153.351 91.2101 152.779 90.89 152.297 90.4577C151.815 90.0254 151.435 89.4915 151.183 88.8946C150.932 88.2976 150.816 87.6524 150.844 87.0054C150.872 86.3583 151.043 85.7255 151.345 85.1525L151.632 84.6837L165.85 64.3786C166.516 63.4268 167.534 62.7789 168.678 62.5771C169.822 62.3753 171 62.6363 171.952 63.3026L192.257 77.5205C192.825 77.9188 193.291 78.4465 193.615 79.06C193.94 79.6735 194.114 80.3553 194.123 81.0492C194.133 81.7432 193.977 82.4294 193.669 83.0515C193.362 83.6735 192.911 84.2136 192.353 84.6272L189.366 86.8403L204.697 97.5748C205.271 97.9777 205.74 98.5127 206.065 99.1347C206.39 99.7567 206.56 100.448 206.562 101.149C206.564 101.851 206.398 102.543 206.077 103.167C205.756 103.791 205.29 104.329 204.718 104.735L204.265 105.019L198.314 108.236L212.812 118.391C215.873 120.531 214.99 125.189 211.548 126.183L211.06 126.296L150.645 136.949Z" fill="white"/>
</g>
<g opacity="0.15">
<path d="M303.551 114.437L304.312 118.752C304.715 121.041 304.193 123.397 302.86 125.301C301.527 127.205 299.492 128.501 297.203 128.905L288.572 130.426C286.283 130.83 283.927 130.308 282.023 128.975C280.119 127.641 278.823 125.607 278.419 123.317L277.659 119.002L303.551 114.437ZM259.636 117.73C255.795 118.408 253.047 114.1 255.286 110.902L265.433 96.4006L258.744 95.413C258.05 95.3104 257.39 95.0425 256.821 94.6317C256.251 94.2209 255.789 93.6793 255.473 93.0526C255.156 92.4258 254.995 91.7322 255.003 91.0302C255.011 90.3282 255.187 89.6382 255.517 89.0185L255.793 88.565L266.523 73.2353L262.963 72.1766C262.343 71.9918 261.771 71.6718 261.288 71.2394C260.806 70.8071 260.426 70.2733 260.175 69.6763C259.923 69.0794 259.808 68.4342 259.836 67.7871C259.864 67.1401 260.035 66.5073 260.337 65.9343L260.623 65.4655L274.841 45.1603C275.508 44.2086 276.525 43.5606 277.669 43.3588C278.814 43.1571 279.991 43.418 280.943 44.0844L301.248 58.3022C301.816 58.7006 302.282 59.2282 302.606 59.8417C302.931 60.4552 303.105 61.137 303.114 61.831C303.124 62.5249 302.968 63.2112 302.66 63.8332C302.353 64.4553 301.902 64.9953 301.344 65.409L298.357 67.622L313.688 78.3565C314.262 78.7594 314.732 79.2944 315.056 79.9164C315.381 80.5385 315.551 81.2294 315.554 81.9311C315.556 82.6327 315.389 83.3246 315.068 83.9486C314.747 84.5725 314.281 85.1103 313.709 85.5166L313.256 85.801L307.305 89.0174L321.804 99.1732C324.864 101.312 323.981 105.971 320.539 106.965L320.051 107.078L259.636 117.73Z" fill="white"/>
</g>
<g opacity="0.15">
<path d="M412.543 95.2183L413.304 99.5337C413.708 101.823 413.185 104.178 411.852 106.082C410.519 107.986 408.484 109.283 406.195 109.686L397.564 111.208C395.275 111.612 392.92 111.09 391.016 109.756C389.112 108.423 387.815 106.388 387.412 104.099L386.651 99.7839L412.543 95.2183ZM368.628 98.5121C364.788 99.1894 362.039 94.8818 364.278 91.6838L374.425 77.1823L367.737 76.1947C367.042 76.0921 366.382 75.8242 365.813 75.4134C365.244 75.0027 364.781 74.4611 364.465 73.8343C364.149 73.2076 363.987 72.514 363.995 71.8119C364.003 71.1099 364.179 70.42 364.509 69.8003L364.785 69.3467L375.515 54.0171L371.956 52.9583C371.335 52.7736 370.763 52.4535 370.281 52.0212C369.798 51.5889 369.418 51.055 369.167 50.4581C368.916 49.8611 368.8 49.2159 368.828 48.5689C368.856 47.9218 369.027 47.289 369.329 46.716L369.615 46.2472L383.833 25.942C384.5 24.9903 385.517 24.3423 386.661 24.1406C387.806 23.9388 388.983 24.1998 389.935 24.8661L410.24 39.0839C410.809 39.4823 411.274 40.01 411.599 40.6235C411.923 41.237 412.097 41.9188 412.107 42.6127C412.116 43.3066 411.96 43.9929 411.653 44.6149C411.345 45.237 410.894 45.7771 410.337 46.1907L407.35 48.4038L422.68 59.1382C423.255 59.5412 423.724 60.0761 424.048 60.6982C424.373 61.3202 424.544 62.0111 424.546 62.7128C424.548 63.4145 424.381 64.1064 424.06 64.7303C423.739 65.3543 423.273 65.892 422.701 66.2983L422.249 66.5828L416.297 69.7991L430.796 79.955C433.856 82.094 432.973 86.7526 429.531 87.7467L429.044 87.8593L368.628 98.5121Z" fill="white"/>
</g>
<g opacity="0.15">
<path d="M104.786 261.865L105.547 266.18C105.951 268.469 105.428 270.825 104.095 272.729C102.762 274.633 100.727 275.929 98.4382 276.333L89.8074 277.854C87.5184 278.258 85.1628 277.736 83.2588 276.403C81.3548 275.069 80.0584 273.034 79.6548 270.745L78.8939 266.43L104.786 261.865ZM60.8715 265.158C57.0308 265.836 54.2823 261.528 56.5216 258.33L66.6681 243.829L59.9798 242.841C59.2852 242.738 58.6255 242.47 58.0561 242.06C57.4868 241.649 57.0244 241.107 56.7081 240.481C56.3917 239.854 56.2306 239.16 56.2382 238.458C56.2459 237.756 56.4221 237.066 56.7521 236.447L57.0281 235.993L67.7582 220.663L64.1988 219.605C63.5781 219.42 63.006 219.1 62.5237 218.667C62.0415 218.235 61.6611 217.701 61.4099 217.104C61.1587 216.507 61.0429 215.862 61.0709 215.215C61.099 214.568 61.2701 213.935 61.5719 213.362L61.8586 212.893L76.0764 192.588C76.743 191.637 77.7603 190.989 78.9046 190.787C80.0489 190.585 81.2265 190.846 82.1784 191.512L102.484 205.73C103.052 206.129 103.517 206.656 103.842 207.27C104.166 207.883 104.34 208.565 104.35 209.259C104.359 209.953 104.204 210.639 103.896 211.261C103.588 211.883 103.137 212.423 102.58 212.837L99.5928 215.05L114.923 225.784C115.498 226.187 115.967 226.722 116.292 227.344C116.616 227.966 116.787 228.657 116.789 229.359C116.791 230.061 116.624 230.753 116.304 231.377C115.983 232 115.516 232.538 114.944 232.945L114.492 233.229L108.54 236.445L123.039 246.601C126.099 248.74 125.216 253.399 121.774 254.393L121.287 254.506L60.8715 265.158Z" fill="white"/>
</g>
<g opacity="0.15">
<path d="M213.777 242.646L214.538 246.962C214.942 249.251 214.42 251.606 213.087 253.51C211.753 255.414 209.718 256.711 207.429 257.114L198.799 258.636C196.51 259.04 194.154 258.518 192.25 257.184C190.346 255.851 189.05 253.816 188.646 251.527L187.885 247.212L213.777 242.646ZM169.863 245.94C166.022 246.617 163.274 242.31 165.513 239.112L175.659 224.61L168.971 223.623C168.276 223.52 167.617 223.252 167.047 222.841C166.478 222.431 166.016 221.889 165.699 221.262C165.383 220.636 165.222 219.942 165.229 219.24C165.237 218.538 165.413 217.848 165.743 217.228L166.019 216.775L176.749 201.445L173.19 200.386C172.569 200.202 171.997 199.881 171.515 199.449C171.033 199.017 170.652 198.483 170.401 197.886C170.15 197.289 170.034 196.644 170.062 195.997C170.09 195.35 170.261 194.717 170.563 194.144L170.85 193.675L185.068 173.37C185.734 172.418 186.752 171.77 187.896 171.569C189.04 171.367 190.218 171.628 191.17 172.294L211.475 186.512C212.043 186.91 212.509 187.438 212.833 188.051C213.157 188.665 213.332 189.347 213.341 190.041C213.35 190.735 213.195 191.421 212.887 192.043C212.579 192.665 212.128 193.205 211.571 193.619L208.584 195.832L223.914 206.566C224.489 206.969 224.958 207.504 225.283 208.126C225.608 208.748 225.778 209.439 225.78 210.141C225.782 210.842 225.616 211.534 225.295 212.158C224.974 212.782 224.508 213.32 223.936 213.726L223.483 214.011L217.531 217.227L232.03 227.383C235.09 229.522 234.208 234.181 230.765 235.175L230.278 235.287L169.863 245.94Z" fill="white"/>
</g>
<g opacity="0.15">
<path d="M322.77 223.428L323.531 227.744C323.934 230.033 323.412 232.388 322.079 234.292C320.746 236.196 318.711 237.493 316.422 237.896L307.791 239.418C305.502 239.822 303.146 239.3 301.242 237.966C299.338 236.633 298.042 234.598 297.638 232.309L296.877 227.994L322.77 223.428ZM278.855 226.722C275.014 227.399 272.266 223.092 274.505 219.894L284.651 205.392L277.963 204.405C277.269 204.302 276.609 204.034 276.04 203.623C275.47 203.213 275.008 202.671 274.691 202.044C274.375 201.418 274.214 200.724 274.222 200.022C274.229 199.32 274.406 198.63 274.735 198.01L275.011 197.557L285.742 182.227L282.182 181.168C281.561 180.984 280.989 180.663 280.507 180.231C280.025 179.799 279.644 179.265 279.393 178.668C279.142 178.071 279.026 177.426 279.054 176.779C279.082 176.132 279.253 175.499 279.555 174.926L279.842 174.457L294.06 154.152C294.726 153.2 295.744 152.552 296.888 152.351C298.032 152.149 299.21 152.41 300.162 153.076L320.467 167.294C321.035 167.692 321.501 168.22 321.825 168.833C322.15 169.447 322.324 170.129 322.333 170.823C322.343 171.517 322.187 172.203 321.879 172.825C321.572 173.447 321.12 173.987 320.563 174.401L317.576 176.614L332.907 187.348C333.481 187.751 333.95 188.286 334.275 188.908C334.6 189.53 334.77 190.221 334.772 190.923C334.774 191.624 334.608 192.316 334.287 192.94C333.966 193.564 333.5 194.102 332.928 194.508L332.475 194.793L326.524 198.009L341.022 208.165C344.083 210.304 343.2 214.963 339.758 215.957L339.27 216.069L278.855 226.722Z" fill="white"/>
</g>
<g opacity="0.15">
<path d="M431.761 204.21L432.522 208.525C432.925 210.814 432.403 213.17 431.07 215.074C429.737 216.978 427.702 218.274 425.413 218.678L416.782 220.2C414.493 220.603 412.137 220.081 410.233 218.748C408.329 217.415 407.033 215.38 406.629 213.091L405.869 208.776L431.761 204.21ZM387.846 207.504C384.005 208.181 381.257 203.874 383.496 200.675L393.643 186.174L386.954 185.186C386.26 185.084 385.6 184.816 385.031 184.405C384.461 183.994 383.999 183.453 383.683 182.826C383.366 182.199 383.205 181.506 383.213 180.804C383.22 180.102 383.397 179.412 383.727 178.792L384.003 178.338L394.733 163.009L391.173 161.95C390.553 161.765 389.981 161.445 389.498 161.013C389.016 160.581 388.636 160.047 388.384 159.45C388.133 158.853 388.018 158.208 388.046 157.561C388.074 156.914 388.245 156.281 388.547 155.708L388.833 155.239L403.051 134.934C403.718 133.982 404.735 133.334 405.879 133.132C407.023 132.931 408.201 133.191 409.153 133.858L429.458 148.076C430.026 148.474 430.492 149.002 430.816 149.615C431.141 150.229 431.315 150.91 431.324 151.604C431.334 152.298 431.178 152.985 430.87 153.607C430.563 154.229 430.112 154.769 429.554 155.182L426.567 157.395L441.898 168.13C442.472 168.533 442.942 169.068 443.266 169.69C443.591 170.312 443.761 171.003 443.764 171.704C443.766 172.406 443.599 173.098 443.278 173.722C442.957 174.346 442.491 174.884 441.919 175.29L441.466 175.574L435.515 178.791L450.013 188.947C453.074 191.086 452.191 195.744 448.749 196.738L448.261 196.851L387.846 207.504Z" fill="white"/>
</g>
<g opacity="0.15">
<path d="M124.004 370.856L124.765 375.171C125.168 377.46 124.646 379.816 123.313 381.72C121.98 383.624 119.945 384.92 117.656 385.324L109.025 386.846C106.736 387.249 104.381 386.727 102.477 385.394C100.573 384.061 99.2762 382.026 98.8726 379.737L98.1117 375.422L124.004 370.856ZM80.0892 374.15C76.2486 374.827 73.5001 370.52 75.7394 367.321L85.8858 352.82L79.1976 351.832C78.503 351.73 77.8433 351.462 77.2739 351.051C76.7045 350.64 76.2422 350.099 75.9258 349.472C75.6095 348.845 75.4483 348.152 75.456 347.45C75.4637 346.748 75.6399 346.058 75.9699 345.438L76.2459 344.984L86.976 329.655L83.4166 328.596C82.7958 328.411 82.2238 328.091 81.7415 327.659C81.2593 327.227 80.8789 326.693 80.6277 326.096C80.3765 325.499 80.2607 324.854 80.2887 324.207C80.3167 323.56 80.4878 322.927 80.7897 322.354L81.0763 321.885L95.2942 301.58C95.9608 300.628 96.9781 299.98 98.1224 299.778C99.2667 299.577 100.444 299.837 101.396 300.504L121.701 314.722C122.27 315.12 122.735 315.648 123.06 316.261C123.384 316.875 123.558 317.556 123.568 318.25C123.577 318.944 123.421 319.631 123.114 320.253C122.806 320.875 122.355 321.415 121.798 321.828L118.811 324.041L134.141 334.776C134.715 335.179 135.185 335.714 135.509 336.336C135.834 336.958 136.005 337.649 136.007 338.35C136.009 339.052 135.842 339.744 135.521 340.368C135.2 340.992 134.734 341.53 134.162 341.936L133.709 342.22L127.758 345.437L142.257 355.593C145.317 357.732 144.434 362.39 140.992 363.384L140.505 363.497L80.0892 374.15Z" fill="white"/>
</g>
<g opacity="0.15">
<path d="M232.996 351.638L233.757 355.953C234.161 358.242 233.638 360.598 232.305 362.502C230.972 364.406 228.937 365.702 226.648 366.106L218.017 367.628C215.728 368.031 213.373 367.509 211.469 366.176C209.565 364.843 208.268 362.808 207.865 360.519L207.104 356.204L232.996 351.638ZM189.081 354.932C185.241 355.609 182.492 351.302 184.732 348.103L194.878 333.602L188.19 332.614C187.495 332.512 186.835 332.244 186.266 331.833C185.697 331.422 185.234 330.881 184.918 330.254C184.602 329.627 184.441 328.934 184.448 328.232C184.456 327.53 184.632 326.84 184.962 326.22L185.238 325.766L195.968 310.437L192.409 309.378C191.788 309.193 191.216 308.873 190.734 308.441C190.251 308.009 189.871 307.475 189.62 306.878C189.369 306.281 189.253 305.636 189.281 304.989C189.309 304.341 189.48 303.709 189.782 303.136L190.069 302.667L204.286 282.362C204.953 281.41 205.97 280.762 207.115 280.56C208.259 280.358 209.436 280.619 210.388 281.286L230.694 295.504C231.262 295.902 231.727 296.43 232.052 297.043C232.376 297.657 232.55 298.338 232.56 299.032C232.569 299.726 232.414 300.413 232.106 301.035C231.798 301.657 231.347 302.197 230.79 302.61L227.803 304.823L243.133 315.558C243.708 315.961 244.177 316.496 244.502 317.118C244.826 317.74 244.997 318.431 244.999 319.132C245.001 319.834 244.834 320.526 244.513 321.15C244.192 321.774 243.726 322.312 243.154 322.718L242.702 323.002L236.75 326.219L251.249 336.375C254.309 338.514 253.426 343.172 249.984 344.166L249.497 344.279L189.081 354.932Z" fill="white"/>
</g>
<g opacity="0.15">
<path d="M341.987 332.42L342.748 336.735C343.152 339.024 342.63 341.38 341.296 343.284C339.963 345.188 337.928 346.484 335.639 346.888L327.009 348.41C324.72 348.813 322.364 348.291 320.46 346.958C318.556 345.625 317.26 343.59 316.856 341.301L316.095 336.985L341.987 332.42ZM298.073 335.714C294.232 336.391 291.483 332.083 293.723 328.885L303.869 314.384L297.181 313.396C296.486 313.294 295.827 313.026 295.257 312.615C294.688 312.204 294.226 311.663 293.909 311.036C293.593 310.409 293.432 309.715 293.439 309.013C293.447 308.311 293.623 307.621 293.953 307.002L294.229 306.548L304.959 291.218L301.4 290.16C300.779 289.975 300.207 289.655 299.725 289.223C299.243 288.79 298.862 288.256 298.611 287.659C298.36 287.063 298.244 286.417 298.272 285.77C298.3 285.123 298.471 284.49 298.773 283.917L299.06 283.449L313.278 263.143C313.944 262.192 314.961 261.544 316.106 261.342C317.25 261.14 318.428 261.401 319.38 262.068L339.685 276.285C340.253 276.684 340.719 277.211 341.043 277.825C341.367 278.438 341.542 279.12 341.551 279.814C341.56 280.508 341.405 281.194 341.097 281.816C340.789 282.438 340.338 282.978 339.781 283.392L336.794 285.605L352.124 296.34C352.699 296.743 353.168 297.278 353.493 297.9C353.817 298.522 353.988 299.213 353.99 299.914C353.992 300.616 353.826 301.308 353.505 301.932C353.184 302.556 352.718 303.093 352.145 303.5L351.693 303.784L345.741 307.001L360.24 317.156C363.3 319.295 362.418 323.954 358.975 324.948L358.488 325.061L298.073 335.714Z" fill="white"/>
</g>
<g opacity="0.15">
<path d="M450.98 313.202L451.74 317.517C452.144 319.806 451.622 322.162 450.289 324.065C448.955 325.969 446.921 327.266 444.632 327.669L436.001 329.191C433.712 329.595 431.356 329.073 429.452 327.74C427.548 326.406 426.252 324.371 425.848 322.082L425.087 317.767L450.98 313.202ZM407.065 316.495C403.224 317.173 400.476 312.865 402.715 309.667L412.861 295.165L406.173 294.178C405.479 294.075 404.819 293.807 404.25 293.397C403.68 292.986 403.218 292.444 402.901 291.817C402.585 291.191 402.424 290.497 402.432 289.795C402.439 289.093 402.615 288.403 402.945 287.783L403.221 287.33L413.952 272L410.392 270.941C409.771 270.757 409.199 270.437 408.717 270.004C408.235 269.572 407.854 269.038 407.603 268.441C407.352 267.844 407.236 267.199 407.264 266.552C407.292 265.905 407.463 265.272 407.765 264.699L408.052 264.23L422.27 243.925C422.936 242.973 423.954 242.325 425.098 242.124C426.242 241.922 427.42 242.183 428.372 242.849L448.677 257.067C449.245 257.465 449.711 257.993 450.035 258.607C450.36 259.22 450.534 259.902 450.543 260.596C450.552 261.29 450.397 261.976 450.089 262.598C449.781 263.22 449.33 263.76 448.773 264.174L445.786 266.387L461.117 277.121C461.691 277.524 462.16 278.059 462.485 278.681C462.81 279.303 462.98 279.994 462.982 280.696C462.984 281.398 462.818 282.09 462.497 282.713C462.176 283.337 461.71 283.875 461.138 284.281L460.685 284.566L454.734 287.782L469.232 297.938C472.292 300.077 471.41 304.736 467.968 305.73L467.48 305.842L407.065 316.495Z" fill="white"/>
</g>
<g opacity="0.15">
<path d="M143.223 479.848L143.984 484.163C144.387 486.452 143.865 488.808 142.532 490.712C141.199 492.616 139.164 493.912 136.875 494.316L128.244 495.838C125.955 496.241 123.599 495.719 121.695 494.386C119.791 493.053 118.495 491.018 118.091 488.729L117.33 484.413L143.223 479.848ZM99.308 483.142C95.4673 483.819 92.7188 479.511 94.9581 476.313L105.105 461.812L98.4163 460.824C97.7218 460.722 97.062 460.454 96.4927 460.043C95.9233 459.632 95.461 459.09 95.1446 458.464C94.8282 457.837 94.6671 457.143 94.6748 456.441C94.6824 455.739 94.8586 455.049 95.1886 454.43L95.4646 453.976L106.195 438.646L102.635 437.588C102.015 437.403 101.443 437.083 100.96 436.651C100.478 436.218 100.098 435.684 99.8464 435.087C99.5952 434.491 99.4794 433.845 99.5075 433.198C99.5355 432.551 99.7066 431.918 100.008 431.345L100.295 430.877L114.513 410.571C115.18 409.62 116.197 408.972 117.341 408.77C118.485 408.568 119.663 408.829 120.615 409.495L140.92 423.713C141.488 424.112 141.954 424.639 142.278 425.253C142.603 425.866 142.777 426.548 142.786 427.242C142.796 427.936 142.64 428.622 142.332 429.244C142.025 429.866 141.574 430.406 141.016 430.82L138.029 433.033L153.36 443.768C153.934 444.171 154.403 444.706 154.728 445.328C155.053 445.95 155.223 446.641 155.225 447.342C155.227 448.044 155.061 448.736 154.74 449.36C154.419 449.984 153.953 450.521 153.381 450.928L152.928 451.212L146.977 454.429L161.475 464.584C164.536 466.723 163.653 471.382 160.211 472.376L159.723 472.489L99.308 483.142Z" fill="white"/>
</g>
<g opacity="0.15">
<path d="M252.214 460.629L252.975 464.945C253.378 467.234 252.856 469.589 251.523 471.493C250.19 473.397 248.155 474.694 245.866 475.097L237.235 476.619C234.946 477.023 232.591 476.501 230.687 475.167C228.783 473.834 227.486 471.799 227.083 469.51L226.322 465.195L252.214 460.629ZM208.299 463.923C204.459 464.6 201.71 460.293 203.949 457.095L214.096 442.593L207.408 441.606C206.713 441.503 206.053 441.235 205.484 440.825C204.915 440.414 204.452 439.872 204.136 439.245C203.819 438.619 203.658 437.925 203.666 437.223C203.674 436.521 203.85 435.831 204.18 435.211L204.456 434.758L215.186 419.428L211.627 418.369C211.006 418.185 210.434 417.865 209.951 417.432C209.469 417 209.089 416.466 208.838 415.869C208.586 415.272 208.471 414.627 208.499 413.98C208.527 413.333 208.698 412.7 209 412.127L209.286 411.658L223.504 391.353C224.171 390.401 225.188 389.753 226.332 389.552C227.477 389.35 228.654 389.611 229.606 390.277L249.911 404.495C250.48 404.893 250.945 405.421 251.27 406.035C251.594 406.648 251.768 407.33 251.777 408.024C251.787 408.718 251.631 409.404 251.324 410.026C251.016 410.648 250.565 411.188 250.008 411.602L247.021 413.815L262.351 424.549C262.925 424.952 263.395 425.487 263.719 426.109C264.044 426.731 264.215 427.422 264.217 428.124C264.219 428.826 264.052 429.518 263.731 430.141C263.41 430.765 262.944 431.303 262.372 431.709L261.919 431.994L255.968 435.21L270.467 445.366C273.527 447.505 272.644 452.164 269.202 453.158L268.715 453.27L208.299 463.923Z" fill="white"/>
</g>
<g opacity="0.15">
<path d="M361.206 441.411L361.967 445.727C362.371 448.016 361.848 450.371 360.515 452.275C359.182 454.179 357.147 455.476 354.858 455.879L346.227 457.401C343.938 457.805 341.583 457.283 339.679 455.949C337.775 454.616 336.478 452.581 336.075 450.292L335.314 445.977L361.206 441.411ZM317.291 444.705C313.451 445.382 310.702 441.075 312.942 437.877L323.088 423.375L316.4 422.388C315.705 422.285 315.045 422.017 314.476 421.607C313.907 421.196 313.444 420.654 313.128 420.027C312.812 419.401 312.65 418.707 312.658 418.005C312.666 417.303 312.842 416.613 313.172 415.993L313.448 415.54L324.178 400.21L320.619 399.151C319.998 398.967 319.426 398.647 318.944 398.214C318.461 397.782 318.081 397.248 317.83 396.651C317.579 396.054 317.463 395.409 317.491 394.762C317.519 394.115 317.69 393.482 317.992 392.909L318.278 392.44L332.496 372.135C333.163 371.183 334.18 370.535 335.325 370.334C336.469 370.132 337.646 370.393 338.598 371.059L358.903 385.277C359.472 385.675 359.937 386.203 360.262 386.817C360.586 387.43 360.76 388.112 360.77 388.806C360.779 389.5 360.623 390.186 360.316 390.808C360.008 391.43 359.557 391.97 359 392.384L356.013 394.597L371.343 405.331C371.918 405.734 372.387 406.269 372.712 406.891C373.036 407.513 373.207 408.204 373.209 408.906C373.211 409.608 373.044 410.299 372.723 410.923C372.402 411.547 371.936 412.085 371.364 412.491L370.912 412.776L364.96 415.992L379.459 426.148C382.519 428.287 381.636 432.946 378.194 433.94L377.707 434.052L317.291 444.705Z" fill="white"/>
</g>
<g opacity="0.15">
<path d="M470.197 422.193L470.958 426.509C471.362 428.798 470.84 431.153 469.506 433.057C468.173 434.961 466.138 436.258 463.849 436.661L455.219 438.183C452.93 438.587 450.574 438.064 448.67 436.731C446.766 435.398 445.47 433.363 445.066 431.074L444.305 426.759L470.197 422.193ZM426.283 425.487C422.442 426.164 419.693 421.857 421.933 418.659L432.079 404.157L425.391 403.17C424.696 403.067 424.037 402.799 423.467 402.388C422.898 401.978 422.436 401.436 422.119 400.809C421.803 400.182 421.642 399.489 421.649 398.787C421.657 398.085 421.833 397.395 422.163 396.775L422.439 396.322L433.169 380.992L429.61 379.933C428.989 379.748 428.417 379.428 427.935 378.996C427.453 378.564 427.072 378.03 426.821 377.433C426.57 376.836 426.454 376.191 426.482 375.544C426.51 374.897 426.681 374.264 426.983 373.691L427.27 373.222L441.488 352.917C442.154 351.965 443.171 351.317 444.316 351.115C445.46 350.914 446.638 351.175 447.589 351.841L467.895 366.059C468.463 366.457 468.928 366.985 469.253 367.598C469.577 368.212 469.751 368.894 469.761 369.588C469.77 370.281 469.615 370.968 469.307 371.59C468.999 372.212 468.548 372.752 467.991 373.166L465.004 375.379L480.334 386.113C480.909 386.516 481.378 387.051 481.703 387.673C482.027 388.295 482.198 388.986 482.2 389.688C482.202 390.389 482.036 391.081 481.715 391.705C481.394 392.329 480.928 392.867 480.355 393.273L479.903 393.558L473.951 396.774L488.45 406.93C491.51 409.069 490.628 413.727 487.185 414.722L486.698 414.834L426.283 425.487Z" fill="white"/>
</g>
</svg>
