<svg width="494" height="446" viewBox="0 0 494 446" fill="none" xmlns="http://www.w3.org/2000/svg">
<g opacity="0.1">
<path fill-rule="evenodd" clip-rule="evenodd" d="M58.3639 127.99C57.7485 128.64 57.0567 129.211 56.2512 129.584C53.9851 130.643 51.218 130.148 48.8346 129.908C32.856 128.293 21.4742 123.359 16.7789 113.83C13.0302 106.22 13.8585 97.7903 17.9145 91.9265C21.6718 86.4949 28.1206 83.4237 35.6056 85.203C39.0592 78.31 45.5537 75.3298 52.1186 75.938C59.2047 76.5929 66.1772 81.3768 69.5824 89.1462C70.25 90.6699 70.7303 92.2564 71.0233 93.9055C71.9138 94.182 72.7694 94.5592 73.5902 95.0371C77.8323 97.5202 80.7417 102.496 80.6174 108.224C80.4593 115.533 74.8123 121.641 66.109 126.826C64.6186 127.716 63.0038 128.776 61.2052 128.776C60.2053 128.774 59.2499 128.428 58.3639 127.99ZM22.5849 110.955C19.8443 105.389 20.5734 99.4909 23.2379 95.6381C25.7949 91.9396 30.2027 89.9545 35.8332 92.0509C37.8004 92.7832 39.9901 91.7568 40.6939 89.7812C42.712 84.1084 47.0615 81.9981 51.5305 82.4115C56.1903 82.844 61.1656 86.0725 63.6539 91.756C63.956 92.4376 64.2018 93.1479 64.3913 93.8868C63.2494 94.2428 62.1673 94.7684 61.181 95.4463C57.1652 92.6988 52.5143 92.839 48.7762 95.0229C44.5368 97.4966 41.6326 102.471 41.7617 108.201C41.8986 114.068 45.5689 119.163 51.5166 123.636C50.857 123.588 50.1694 123.511 49.4765 123.442C33.9733 121.875 25.7038 117.286 22.5849 110.955ZM48.2404 108.058C48.158 104.607 49.9107 101.886 52.0385 100.639C54.0066 99.4936 56.4158 99.4879 58.6463 101.751C58.9788 102.089 59.3746 102.357 59.8107 102.539C60.2468 102.722 60.7146 102.817 61.1871 102.817C61.6595 102.818 62.1273 102.724 62.5633 102.542C62.9993 102.36 63.3949 102.093 63.7272 101.757C65.9583 99.4918 68.3671 99.5027 70.332 100.651C72.4657 101.899 74.2158 104.627 74.1401 108.076C74.0603 111.819 71.0916 116.297 62.7985 121.234C62.2719 121.548 61.7513 121.878 61.2008 122.15C60.6491 121.874 60.1278 121.547 59.5992 121.234C51.302 116.284 48.3252 111.803 48.2398 108.055L48.2404 108.058Z" fill="white"/>
<path fill-rule="evenodd" clip-rule="evenodd" d="M170.763 108.171C170.148 108.821 169.456 109.392 168.651 109.765C166.385 110.824 163.617 110.329 161.234 110.089C145.255 108.474 133.874 103.54 129.178 94.0112C125.43 86.4014 126.258 77.9712 130.314 72.1074C134.071 66.6758 140.52 63.6046 148.005 65.3839C151.459 58.4909 157.953 55.5107 164.518 56.1189C171.604 56.7738 178.577 61.5577 181.982 69.3272C182.649 70.8508 183.13 72.4373 183.423 74.0864C184.313 74.3629 185.169 74.7401 185.99 75.218C190.232 77.7011 193.141 82.6768 193.017 88.4051C192.859 95.7137 187.212 101.822 178.508 107.007C177.018 107.897 175.403 108.957 173.605 108.957C172.605 108.955 171.649 108.609 170.763 108.171ZM134.984 91.1359C132.244 85.5695 132.973 79.6718 135.637 75.819C138.194 72.1205 142.602 70.1354 148.233 72.2318C150.2 72.9641 152.389 71.9378 153.093 69.9621C155.111 64.2893 159.461 62.1791 163.93 62.5924C168.59 63.0249 173.565 66.2534 176.053 71.9369C176.355 72.6185 176.601 73.3288 176.791 74.0677C175.649 74.4237 174.567 74.9494 173.58 75.6272C169.565 72.8797 164.914 73.0199 161.176 75.2038C156.936 77.6775 154.032 82.6517 154.161 88.3816C154.298 94.2487 157.968 99.3443 163.916 103.817C163.256 103.768 162.569 103.692 161.876 103.622C146.373 102.056 138.103 97.4674 134.984 91.1359ZM160.64 88.2393C160.557 84.7884 162.31 82.0667 164.438 80.8202C166.406 79.6745 168.815 79.6688 171.046 81.9324C171.378 82.2696 171.774 82.5374 172.21 82.7204C172.646 82.9034 173.114 82.9978 173.586 82.9983C174.059 82.9987 174.527 82.9052 174.963 82.7232C175.399 82.5411 175.794 82.274 176.127 81.9375C178.358 79.6727 180.767 79.6837 182.731 80.8323C184.865 82.0799 186.615 84.8077 186.539 88.2568C186.46 92.0003 183.491 96.4777 175.198 101.415C174.671 101.729 174.151 102.059 173.6 102.331C173.049 102.055 172.527 101.728 171.999 101.415C163.701 96.4654 160.725 91.9835 160.639 88.2361L160.64 88.2393Z" fill="white"/>
<path fill-rule="evenodd" clip-rule="evenodd" d="M283.162 88.3522C282.546 89.002 281.855 89.5728 281.049 89.9459C278.783 91.0055 276.016 90.5099 273.632 90.2701C257.654 88.6551 246.272 83.7212 241.577 74.1924C237.828 66.5825 238.656 58.1524 242.712 52.2885C246.47 46.8569 252.918 43.7858 260.403 45.5651C263.857 38.6721 270.352 35.6919 276.916 36.3C284.003 36.9549 290.975 41.7389 294.38 49.5083C295.048 51.032 295.528 52.6184 295.821 54.2676C296.712 54.544 297.567 54.9212 298.388 55.3992C302.63 57.8823 305.54 62.8579 305.415 68.5863C305.257 75.8949 299.61 82.003 290.907 87.1878C289.416 88.0777 287.802 89.1381 286.003 89.1384C285.003 89.1364 284.048 88.79 283.162 88.3522ZM247.383 71.3171C244.642 65.7506 245.371 59.8529 248.036 56.0002C250.593 52.3017 255.001 50.3165 260.631 52.4129C262.598 53.1453 264.788 52.1189 265.492 50.1433C267.51 44.4704 271.859 42.3602 276.328 42.7736C280.988 43.2061 285.963 46.4345 288.452 52.1181C288.754 52.7997 289 53.5099 289.189 54.2488C288.047 54.6048 286.965 55.1305 285.979 55.8083C281.963 53.0609 277.312 53.2011 273.574 55.385C269.335 57.8586 266.43 62.8329 266.56 68.5628C266.696 74.4299 270.367 79.5255 276.314 83.9983C275.655 83.9496 274.967 83.8728 274.274 83.8036C258.771 82.2368 250.502 77.6485 247.383 71.3171ZM273.038 68.4204C272.956 64.9695 274.709 62.2479 276.836 61.0014C278.804 59.8556 281.214 59.85 283.444 62.1135C283.777 62.4508 284.172 62.7186 284.609 62.9015C285.045 63.0845 285.512 63.1789 285.985 63.1794C286.457 63.1799 286.925 63.0864 287.361 62.9043C287.797 62.7222 288.193 62.4552 288.525 62.1186C290.756 59.8539 293.165 59.8648 295.13 61.0134C297.264 62.261 299.014 64.9888 298.938 68.4379C298.858 72.1815 295.889 76.6588 287.596 81.5965C287.07 81.9105 286.549 82.2399 285.999 82.5119C285.447 82.2362 284.926 81.909 284.397 81.5962C276.1 76.6465 273.123 72.1647 273.038 68.4172L273.038 68.4204Z" fill="white"/>
<path fill-rule="evenodd" clip-rule="evenodd" d="M395.561 68.5331C394.946 69.1829 394.254 69.7537 393.448 70.1268C391.182 71.1864 388.415 70.6908 386.032 70.451C370.053 68.836 358.671 63.9021 353.976 54.3733C350.227 46.7634 351.056 38.3333 355.112 32.4695C358.869 27.0378 365.318 23.9667 372.803 25.746C376.256 18.853 382.751 15.8728 389.316 16.481C396.402 17.1358 403.374 21.9198 406.78 29.6892C407.447 31.2129 407.928 32.7993 408.221 34.4485C409.111 34.7249 409.967 35.1021 410.787 35.5801C415.03 38.0632 417.939 43.0388 417.815 48.7672C417.657 56.0758 412.01 62.1839 403.306 67.3688C401.816 68.2586 400.201 69.319 398.403 69.3193C397.403 69.3173 396.447 68.9709 395.561 68.5331ZM359.782 51.498C357.042 45.9315 357.771 40.0339 360.435 36.1811C362.992 32.4826 367.4 30.4974 373.03 32.5938C374.998 33.3262 377.187 32.2998 377.891 30.3242C379.909 24.6513 384.259 22.5411 388.728 22.9545C393.388 23.387 398.363 26.6154 400.851 32.299C401.153 32.9806 401.399 33.6909 401.589 34.4297C400.447 34.7858 399.365 35.3114 398.378 35.9892C394.362 33.2418 389.712 33.382 385.973 35.5659C381.734 38.0395 378.83 43.0138 378.959 48.7437C379.096 54.6108 382.766 59.7064 388.714 64.1793C388.054 64.1305 387.367 64.0538 386.674 63.9845C371.171 62.4177 362.901 57.8294 359.782 51.498ZM385.438 48.6013C385.355 45.1504 387.108 42.4288 389.236 41.1823C391.204 40.0365 393.613 40.0309 395.844 42.2944C396.176 42.6317 396.572 42.8995 397.008 43.0825C397.444 43.2654 397.912 43.3599 398.384 43.3603C398.857 43.3608 399.325 43.2673 399.761 43.0852C400.197 42.9031 400.592 42.6361 400.925 42.2995C403.156 40.0348 405.564 40.0457 407.529 41.1943C409.663 42.4419 411.413 45.1697 411.337 48.6188C411.258 52.3624 408.289 56.8397 399.996 61.7774C399.469 62.0914 398.949 62.4208 398.398 62.6928C397.846 62.4171 397.325 62.0899 396.796 61.7771C388.499 56.8274 385.522 52.3456 385.437 48.5981L385.438 48.6013Z" fill="white"/>
<path fill-rule="evenodd" clip-rule="evenodd" d="M76.3248 229.852C75.7094 230.501 75.0177 231.072 74.2121 231.445C71.9461 232.505 69.1789 232.009 66.7956 231.77C50.817 230.155 39.4351 225.221 34.7398 215.692C30.9912 208.082 31.8195 199.652 35.8754 193.788C39.6327 188.356 46.0816 185.285 53.5665 187.065C57.0201 180.172 63.5146 177.191 70.0795 177.8C77.1656 178.454 84.1381 183.238 87.5433 191.008C88.211 192.532 88.6913 194.118 88.9842 195.767C89.8747 196.044 90.7304 196.421 91.5512 196.899C95.7933 199.382 98.7026 204.357 98.5783 210.086C98.4203 217.394 92.7732 223.502 84.07 228.687C82.5796 229.577 80.9647 230.638 79.1662 230.638C78.1663 230.636 77.2109 230.29 76.3248 229.852ZM40.5459 212.817C37.8053 207.25 38.5343 201.352 41.1989 197.5C43.7559 193.801 48.1636 191.816 53.7941 193.912C55.7613 194.645 57.951 193.618 58.6548 191.643C60.6729 185.97 65.0225 183.86 69.4915 184.273C74.1513 184.706 79.1265 187.934 81.6149 193.618C81.917 194.299 82.1628 195.009 82.3523 195.748C81.2104 196.104 80.1283 196.63 79.1419 197.308C75.1261 194.56 70.4752 194.701 66.7371 196.885C62.4977 199.358 59.5936 204.332 59.7227 210.062C59.8596 215.929 63.5299 221.025 69.4775 225.498C68.8179 225.449 68.1303 225.372 67.4375 225.303C51.9343 223.736 43.6647 219.148 40.5459 212.817ZM66.2013 209.92C66.1189 206.469 67.8716 203.747 69.9995 202.501C71.9676 201.355 74.3767 201.349 76.6073 203.613C76.9398 203.95 77.3355 204.218 77.7716 204.401C78.2078 204.584 78.6756 204.678 79.148 204.679C79.6205 204.679 80.0882 204.586 80.5242 204.404C80.9602 204.222 81.3558 203.955 81.6882 203.618C83.9193 201.353 86.328 201.364 88.293 202.513C90.4266 203.761 92.1767 206.488 92.101 209.937C92.0213 213.681 89.0525 218.158 80.7594 223.096C80.2328 223.41 79.7122 223.739 79.1617 224.011C78.61 223.736 78.0887 223.408 77.5601 223.096C69.2629 218.146 66.2861 213.664 66.2008 209.917L66.2013 209.92Z" fill="white"/>
<path fill-rule="evenodd" clip-rule="evenodd" d="M188.724 210.033C188.109 210.682 187.417 211.253 186.612 211.626C184.345 212.686 181.578 212.19 179.195 211.951C163.216 210.335 151.835 205.402 147.139 195.873C143.391 188.263 144.219 179.833 148.275 173.969C152.032 168.537 158.481 165.466 165.966 167.245C169.42 160.353 175.914 157.372 182.479 157.98C189.565 158.635 196.538 163.419 199.943 171.189C200.61 172.712 201.091 174.299 201.384 175.948C202.274 176.224 203.13 176.602 203.951 177.08C208.193 179.563 211.102 184.538 210.978 190.267C210.82 197.575 205.173 203.683 196.469 208.868C194.979 209.758 193.364 210.818 191.566 210.819C190.566 210.817 189.61 210.47 188.724 210.033ZM152.945 192.997C150.205 187.431 150.934 181.533 153.598 177.681C156.155 173.982 160.563 171.997 166.194 174.093C168.161 174.826 170.35 173.799 171.054 171.824C173.072 166.151 177.422 164.041 181.891 164.454C186.551 164.886 191.526 168.115 194.014 173.798C194.316 174.48 194.562 175.19 194.752 175.929C193.61 176.285 192.528 176.811 191.541 177.489C187.526 174.741 182.875 174.881 179.137 177.065C174.897 179.539 171.993 184.513 172.122 190.243C172.259 196.11 175.929 201.206 181.877 205.679C181.217 205.63 180.53 205.553 179.837 205.484C164.334 203.917 156.064 199.329 152.945 192.997ZM178.601 190.101C178.518 186.65 180.271 183.928 182.399 182.682C184.367 181.536 186.776 181.53 189.007 183.794C189.339 184.131 189.735 184.399 190.171 184.582C190.607 184.765 191.075 184.859 191.547 184.86C192.02 184.86 192.488 184.767 192.924 184.585C193.36 184.403 193.755 184.136 194.088 183.799C196.319 181.534 198.727 181.545 200.692 182.694C202.826 183.941 204.576 186.669 204.5 190.118C204.421 193.862 201.452 198.339 193.159 203.277C192.632 203.591 192.112 203.92 191.561 204.192C191.009 203.917 190.488 203.589 189.96 203.277C181.662 198.327 178.686 193.845 178.6 190.098L178.601 190.101Z" fill="white"/>
<path fill-rule="evenodd" clip-rule="evenodd" d="M301.123 190.214C300.507 190.863 299.816 191.434 299.01 191.807C296.744 192.867 293.977 192.371 291.593 192.131C275.615 190.516 264.233 185.583 259.538 176.054C255.789 168.444 256.617 160.014 260.673 154.15C264.431 148.718 270.879 145.647 278.364 147.426C281.818 140.533 288.312 137.553 294.877 138.161C301.963 138.816 308.936 143.6 312.341 151.37C313.009 152.893 313.489 154.48 313.782 156.129C314.673 156.405 315.528 156.783 316.349 157.261C320.591 159.744 323.5 164.719 323.376 170.448C323.218 177.756 317.571 183.864 308.868 189.049C307.377 189.939 305.763 190.999 303.964 191C302.964 190.998 302.009 190.651 301.123 190.214ZM265.344 173.178C262.603 167.612 263.332 161.714 265.997 157.861C268.554 154.163 272.961 152.178 278.592 154.274C280.559 155.007 282.749 153.98 283.453 152.005C285.471 146.332 289.82 144.222 294.289 144.635C298.949 145.067 303.924 148.296 306.413 153.979C306.715 154.661 306.961 155.371 307.15 156.11C306.008 156.466 304.926 156.992 303.94 157.67C299.924 154.922 295.273 155.062 291.535 157.246C287.296 159.72 284.391 164.694 284.521 170.424C284.657 176.291 288.328 181.387 294.275 185.86C293.616 185.811 292.928 185.734 292.235 185.665C276.732 184.098 268.463 179.51 265.344 173.178ZM290.999 170.282C290.917 166.831 292.669 164.109 294.797 162.863C296.765 161.717 299.175 161.711 301.405 163.975C301.738 164.312 302.133 164.58 302.569 164.763C303.006 164.946 303.473 165.04 303.946 165.041C304.418 165.041 304.886 164.948 305.322 164.766C305.758 164.584 306.154 164.317 306.486 163.98C308.717 161.715 311.126 161.726 313.091 162.875C315.224 164.122 316.975 166.85 316.899 170.299C316.819 174.043 313.85 178.52 305.557 183.458C305.031 183.772 304.51 184.101 303.96 184.373C303.408 184.098 302.887 183.77 302.358 183.458C294.061 178.508 291.084 174.026 290.999 170.279L290.999 170.282Z" fill="white"/>
<path fill-rule="evenodd" clip-rule="evenodd" d="M413.522 170.395C412.907 171.044 412.215 171.615 411.409 171.988C409.143 173.048 406.376 172.552 403.993 172.313C388.014 170.698 376.632 165.764 371.937 156.235C368.188 148.625 369.017 140.195 373.073 134.331C376.83 128.899 383.279 125.828 390.764 127.608C394.217 120.715 400.712 117.734 407.277 118.343C414.363 118.997 421.335 123.781 424.741 131.551C425.408 133.074 425.889 134.661 426.182 136.31C427.072 136.587 427.928 136.964 428.748 137.442C432.991 139.925 435.9 144.9 435.776 150.629C435.618 157.937 429.971 164.045 421.267 169.23C419.777 170.12 418.162 171.181 416.363 171.181C415.364 171.179 414.408 170.833 413.522 170.395ZM377.743 153.36C375.003 147.793 375.732 141.895 378.396 138.043C380.953 134.344 385.361 132.359 390.991 134.455C392.959 135.188 395.148 134.161 395.852 132.186C397.87 126.513 402.22 124.403 406.689 124.816C411.349 125.249 416.324 128.477 418.812 134.161C419.114 134.842 419.36 135.552 419.55 136.291C418.408 136.647 417.326 137.173 416.339 137.851C412.323 135.103 407.673 135.244 403.934 137.427C399.695 139.901 396.791 144.875 396.92 150.605C397.057 156.472 400.727 161.568 406.675 166.041C406.015 165.992 405.328 165.915 404.635 165.846C389.132 164.279 380.862 159.691 377.743 153.36ZM403.399 150.463C403.316 147.012 405.069 144.29 407.197 143.044C409.165 141.898 411.574 141.892 413.805 144.156C414.137 144.493 414.533 144.761 414.969 144.944C415.405 145.127 415.873 145.221 416.345 145.222C416.818 145.222 417.285 145.129 417.721 144.947C418.157 144.765 418.553 144.498 418.885 144.161C421.117 141.896 423.525 141.907 425.49 143.056C427.624 144.304 429.374 147.031 429.298 150.48C429.219 154.224 426.25 158.701 417.957 163.639C417.43 163.953 416.909 164.282 416.359 164.554C415.807 164.279 415.286 163.951 414.757 163.639C406.46 158.689 403.483 154.207 403.398 150.46L403.399 150.463Z" fill="white"/>
<path fill-rule="evenodd" clip-rule="evenodd" d="M94.2867 331.713C93.6713 332.363 92.9796 332.934 92.174 333.307C89.908 334.366 87.1409 333.871 84.7575 333.631C68.7789 332.016 57.3971 327.082 52.7017 317.553C48.9531 309.943 49.7814 301.513 53.8373 295.649C57.5946 290.218 64.0435 287.147 71.5284 288.926C74.982 282.033 81.4765 279.053 88.0414 279.661C95.1276 280.316 102.1 285.1 105.505 292.869C106.173 294.393 106.653 295.979 106.946 297.628C107.837 297.905 108.692 298.282 109.513 298.76C113.755 301.243 116.665 306.219 116.54 311.947C116.382 319.256 110.735 325.364 102.032 330.549C100.541 331.439 98.9266 332.499 97.1281 332.499C96.1282 332.497 95.1728 332.151 94.2867 331.713ZM58.5078 314.678C55.7672 309.111 56.4962 303.214 59.1608 299.361C61.7178 295.663 66.1255 293.677 71.7561 295.774C73.7232 296.506 75.9129 295.48 76.6167 293.504C78.6349 287.831 82.9844 285.721 87.4534 286.134C92.1132 286.567 97.0884 289.795 99.5768 295.479C99.8789 296.161 100.125 296.871 100.314 297.61C99.1723 297.966 98.0902 298.491 97.1038 299.169C93.088 296.422 88.4372 296.562 84.699 298.746C80.4596 301.219 77.5555 306.194 77.6846 311.924C77.8215 317.791 81.4918 322.886 87.4394 327.359C86.7798 327.31 86.0922 327.234 85.3994 327.164C69.8962 325.598 61.6266 321.009 58.5078 314.678ZM84.1632 311.781C84.0808 308.33 85.8335 305.609 87.9614 304.362C89.9295 303.216 92.3386 303.211 94.5692 305.474C94.9017 305.812 95.2975 306.079 95.7336 306.262C96.1697 306.445 96.6375 306.54 97.1099 306.54C97.5824 306.541 98.0501 306.447 98.4861 306.265C98.9221 306.083 99.3177 305.816 99.6501 305.479C101.881 303.215 104.29 303.226 106.255 304.374C108.389 305.622 110.139 308.35 110.063 311.799C109.983 315.542 107.014 320.02 98.7213 324.957C98.1947 325.271 97.6741 325.601 97.1236 325.873C96.572 325.597 96.0506 325.27 95.522 324.957C87.2249 320.007 84.248 315.526 84.1627 311.778L84.1632 311.781Z" fill="white"/>
<path fill-rule="evenodd" clip-rule="evenodd" d="M206.685 311.894C206.07 312.544 205.378 313.115 204.572 313.488C202.306 314.548 199.539 314.052 197.156 313.812C181.177 312.197 169.795 307.263 165.1 297.734C161.352 290.124 162.18 281.694 166.236 275.831C169.993 270.399 176.442 267.328 183.927 269.107C187.38 262.214 193.875 259.234 200.44 259.842C207.526 260.497 214.498 265.281 217.904 273.05C218.571 274.574 219.052 276.16 219.345 277.81C220.235 278.086 221.091 278.463 221.912 278.941C226.154 281.424 229.063 286.4 228.939 292.128C228.781 299.437 223.134 305.545 214.43 310.73C212.94 311.62 211.325 312.68 209.527 312.68C208.527 312.678 207.571 312.332 206.685 311.894ZM170.906 294.859C168.166 289.293 168.895 283.395 171.559 279.542C174.116 275.844 178.524 273.859 184.154 275.955C186.122 276.687 188.311 275.661 189.015 273.685C191.033 268.012 195.383 265.902 199.852 266.316C204.512 266.748 209.487 269.977 211.975 275.66C212.277 276.342 212.523 277.052 212.713 277.791C211.571 278.147 210.489 278.672 209.502 279.35C205.486 276.603 200.836 276.743 197.097 278.927C192.858 281.401 189.954 286.375 190.083 292.105C190.22 297.972 193.89 303.067 199.838 307.54C199.178 307.492 198.491 307.415 197.798 307.346C182.295 305.779 174.025 301.191 170.906 294.859ZM196.562 291.962C196.479 288.512 198.232 285.79 200.36 284.543C202.328 283.398 204.737 283.392 206.968 285.656C207.3 285.993 207.696 286.261 208.132 286.444C208.568 286.626 209.036 286.721 209.508 286.721C209.981 286.722 210.449 286.628 210.885 286.446C211.321 286.264 211.716 285.997 212.049 285.661C214.28 283.396 216.688 283.407 218.653 284.555C220.787 285.803 222.537 288.531 222.461 291.98C222.382 295.723 219.413 300.201 211.12 305.138C210.593 305.452 210.073 305.782 209.522 306.054C208.97 305.778 208.449 305.451 207.92 305.138C199.623 300.189 196.646 295.707 196.561 291.959L196.562 291.962Z" fill="white"/>
<path fill-rule="evenodd" clip-rule="evenodd" d="M319.084 292.075C318.468 292.725 317.776 293.296 316.971 293.669C314.705 294.728 311.938 294.233 309.554 293.993C293.576 292.378 282.194 287.444 277.499 277.915C273.75 270.305 274.578 261.875 278.634 256.011C282.392 250.58 288.84 247.509 296.325 249.288C299.779 242.395 306.273 239.415 312.838 240.023C319.924 240.678 326.897 245.462 330.302 253.231C330.97 254.755 331.45 256.341 331.743 257.99C332.634 258.267 333.489 258.644 334.31 259.122C338.552 261.605 341.461 266.581 341.337 272.309C341.179 279.618 335.532 285.726 326.829 290.911C325.338 291.801 323.723 292.861 321.925 292.861C320.925 292.859 319.97 292.513 319.084 292.075ZM283.305 275.04C280.564 269.474 281.293 263.576 283.958 259.723C286.515 256.025 290.922 254.039 296.553 256.136C298.52 256.868 300.71 255.842 301.414 253.866C303.432 248.193 307.781 246.083 312.25 246.496C316.91 246.929 321.885 250.157 324.374 255.841C324.676 256.523 324.922 257.233 325.111 257.972C323.969 258.328 322.887 258.853 321.901 259.531C317.885 256.784 313.234 256.924 309.496 259.108C305.256 261.582 302.352 266.556 302.481 272.286C302.618 278.153 306.289 283.248 312.236 287.721C311.577 287.673 310.889 287.596 310.196 287.526C294.693 285.96 286.423 281.371 283.305 275.04ZM308.96 272.143C308.878 268.692 310.63 265.971 312.758 264.724C314.726 263.579 317.135 263.573 319.366 265.836C319.699 266.174 320.094 266.441 320.53 266.624C320.967 266.807 321.434 266.902 321.907 266.902C322.379 266.903 322.847 266.809 323.283 266.627C323.719 266.445 324.115 266.178 324.447 265.842C326.678 263.577 329.087 263.588 331.052 264.736C333.185 265.984 334.936 268.712 334.86 272.161C334.78 275.904 331.811 280.382 323.518 285.319C322.992 285.633 322.471 285.963 321.921 286.235C321.369 285.959 320.848 285.632 320.319 285.319C312.022 280.369 309.045 275.888 308.96 272.14L308.96 272.143Z" fill="white"/>
<path fill-rule="evenodd" clip-rule="evenodd" d="M431.483 272.256C430.868 272.906 430.176 273.477 429.37 273.85C427.104 274.909 424.337 274.414 421.954 274.174C405.975 272.559 394.593 267.625 389.898 258.096C386.149 250.486 386.978 242.056 391.034 236.192C394.791 230.761 401.24 227.69 408.725 229.469C412.178 222.576 418.673 219.596 425.238 220.204C432.324 220.859 439.296 225.643 442.702 233.412C443.369 234.936 443.849 236.522 444.142 238.171C445.033 238.448 445.889 238.825 446.709 239.303C450.951 241.786 453.861 246.762 453.737 252.49C453.578 259.799 447.931 265.907 439.228 271.092C437.738 271.982 436.123 273.042 434.324 273.042C433.324 273.04 432.369 272.694 431.483 272.256ZM395.704 255.221C392.963 249.654 393.693 243.757 396.357 239.904C398.914 236.205 403.322 234.22 408.952 236.317C410.919 237.049 413.109 236.023 413.813 234.047C415.831 228.374 420.181 226.264 424.65 226.677C429.309 227.11 434.285 230.338 436.773 236.022C437.075 236.703 437.321 237.414 437.51 238.153C436.369 238.509 435.286 239.034 434.3 239.712C430.284 236.965 425.633 237.105 421.895 239.289C417.656 241.762 414.752 246.737 414.881 252.467C415.018 258.334 418.688 263.429 424.636 267.902C423.976 267.853 423.289 267.777 422.596 267.707C407.092 266.141 398.823 261.552 395.704 255.221ZM421.36 252.324C421.277 248.873 423.03 246.152 425.158 244.905C427.126 243.759 429.535 243.754 431.765 246.017C432.098 246.355 432.494 246.622 432.93 246.805C433.366 246.988 433.834 247.083 434.306 247.083C434.779 247.084 435.246 246.99 435.682 246.808C436.118 246.626 436.514 246.359 436.846 246.022C439.077 243.758 441.486 243.769 443.451 244.917C445.585 246.165 447.335 248.893 447.259 252.342C447.179 256.085 444.211 260.563 435.918 265.5C435.391 265.814 434.87 266.144 434.32 266.416C433.768 266.14 433.247 265.813 432.718 265.5C424.421 260.55 421.444 256.068 421.359 252.321L421.36 252.324Z" fill="white"/>
<path fill-rule="evenodd" clip-rule="evenodd" d="M112.247 433.575C111.631 434.224 110.94 434.795 110.134 435.168C107.868 436.228 105.101 435.732 102.717 435.493C86.7389 433.877 75.357 428.944 70.6617 419.415C66.913 411.805 67.7414 403.375 71.7973 397.511C75.5546 392.079 82.0034 389.008 89.4884 390.787C92.942 383.894 99.4365 380.914 106.001 381.522C113.088 382.177 120.06 386.961 123.465 394.731C124.133 396.254 124.613 397.841 124.906 399.49C125.797 399.766 126.652 400.144 127.473 400.622C131.715 403.105 134.624 408.08 134.5 413.809C134.342 421.117 128.695 427.225 119.992 432.41C118.501 433.3 116.887 434.36 115.088 434.361C114.088 434.359 113.133 434.012 112.247 433.575ZM76.4677 416.539C73.7271 410.973 74.4562 405.075 77.1208 401.223C79.6777 397.524 84.0855 395.539 89.716 397.635C91.6832 398.368 93.8729 397.341 94.5767 395.366C96.5948 389.693 100.944 387.583 105.413 387.996C110.073 388.428 115.048 391.657 117.537 397.34C117.839 398.022 118.085 398.732 118.274 399.471C117.132 399.827 116.05 400.353 115.064 401.031C111.048 398.283 106.397 398.423 102.659 400.607C98.4196 403.081 95.5154 408.055 95.6446 413.785C95.7815 419.652 99.4518 424.748 105.399 429.221C104.74 429.172 104.052 429.095 103.359 429.026C87.8562 427.459 79.5866 422.871 76.4677 416.539ZM102.123 413.643C102.041 410.192 103.793 407.47 105.921 406.224C107.889 405.078 110.299 405.072 112.529 407.336C112.862 407.673 113.257 407.941 113.694 408.124C114.13 408.307 114.597 408.401 115.07 408.402C115.542 408.402 116.01 408.309 116.446 408.127C116.882 407.945 117.278 407.678 117.61 407.341C119.841 405.076 122.25 405.087 124.215 406.236C126.348 407.483 128.099 410.211 128.023 413.66C127.943 417.404 124.974 421.881 116.681 426.819C116.155 427.133 115.634 427.462 115.084 427.734C114.532 427.459 114.011 427.131 113.482 426.819C105.185 421.869 102.208 417.387 102.123 413.64L102.123 413.643Z" fill="white"/>
<path fill-rule="evenodd" clip-rule="evenodd" d="M224.646 413.756C224.031 414.405 223.339 414.976 222.533 415.349C220.267 416.409 217.5 415.913 215.117 415.673C199.138 414.058 187.756 409.125 183.061 399.596C179.312 391.986 180.141 383.556 184.197 377.692C187.954 372.26 194.403 369.189 201.888 370.968C205.341 364.075 211.836 361.095 218.401 361.703C225.487 362.358 232.459 367.142 235.865 374.912C236.532 376.435 237.013 378.022 237.306 379.671C238.196 379.947 239.052 380.325 239.872 380.802C244.115 383.286 247.024 388.261 246.9 393.99C246.742 401.298 241.095 407.406 232.391 412.591C230.901 413.481 229.286 414.541 227.487 414.542C226.488 414.54 225.532 414.193 224.646 413.756ZM188.867 396.72C186.127 391.154 186.856 385.256 189.52 381.403C192.077 377.705 196.485 375.72 202.115 377.816C204.083 378.549 206.272 377.522 206.976 375.547C208.994 369.874 213.344 367.764 217.813 368.177C222.473 368.609 227.448 371.838 229.936 377.521C230.238 378.203 230.484 378.913 230.674 379.652C229.532 380.008 228.45 380.534 227.463 381.212C223.447 378.464 218.797 378.604 215.058 380.788C210.819 383.262 207.915 388.236 208.044 393.966C208.181 399.833 211.851 404.929 217.799 409.402C217.139 409.353 216.452 409.276 215.759 409.207C200.256 407.64 191.986 403.052 188.867 396.72ZM214.523 393.824C214.44 390.373 216.193 387.651 218.321 386.405C220.289 385.259 222.698 385.253 224.929 387.517C225.261 387.854 225.657 388.122 226.093 388.305C226.529 388.488 226.997 388.582 227.469 388.583C227.942 388.583 228.41 388.49 228.846 388.308C229.282 388.126 229.677 387.859 230.009 387.522C232.241 385.257 234.649 385.268 236.614 386.417C238.748 387.664 240.498 390.392 240.422 393.841C240.343 397.585 237.374 402.062 229.081 407C228.554 407.314 228.033 407.643 227.483 407.915C226.931 407.64 226.41 407.312 225.881 407C217.584 402.05 214.607 397.568 214.522 393.821L214.523 393.824Z" fill="white"/>
<path fill-rule="evenodd" clip-rule="evenodd" d="M337.046 393.937C336.43 394.587 335.738 395.158 334.933 395.531C332.667 396.59 329.9 396.095 327.516 395.855C311.538 394.24 300.156 389.306 295.461 379.777C291.712 372.167 292.54 363.737 296.596 357.873C300.353 352.442 306.802 349.37 314.287 351.15C317.741 344.257 324.235 341.277 330.8 341.885C337.886 342.54 344.859 347.324 348.264 355.093C348.932 356.617 349.412 358.203 349.705 359.852C350.595 360.129 351.451 360.506 352.272 360.984C356.514 363.467 359.423 368.443 359.299 374.171C359.141 381.48 353.494 387.588 344.791 392.773C343.3 393.662 341.685 394.723 339.887 394.723C338.887 394.721 337.932 394.375 337.046 393.937ZM301.267 376.902C298.526 371.335 299.255 365.438 301.92 361.585C304.477 357.886 308.884 355.901 314.515 357.998C316.482 358.73 318.672 357.704 319.376 355.728C321.394 350.055 325.743 347.945 330.212 348.358C334.872 348.791 339.847 352.019 342.336 357.703C342.638 358.384 342.883 359.095 343.073 359.834C341.931 360.19 340.849 360.715 339.863 361.393C335.847 358.646 331.196 358.786 327.458 360.97C323.218 363.443 320.314 368.418 320.443 374.147C320.58 380.015 324.251 385.11 330.198 389.583C329.539 389.534 328.851 389.458 328.158 389.388C312.655 387.821 304.385 383.233 301.267 376.902ZM326.922 374.005C326.84 370.554 328.592 367.833 330.72 366.586C332.688 365.44 335.097 365.435 337.328 367.698C337.66 368.035 338.056 368.303 338.492 368.486C338.928 368.669 339.396 368.764 339.869 368.764C340.341 368.765 340.809 368.671 341.245 368.489C341.681 368.307 342.077 368.04 342.409 367.703C344.64 365.439 347.049 365.45 349.014 366.598C351.147 367.846 352.897 370.574 352.822 374.023C352.742 377.766 349.773 382.244 341.48 387.181C340.954 387.495 340.433 387.825 339.882 388.097C339.331 387.821 338.809 387.494 338.281 387.181C329.984 382.231 327.007 377.749 326.921 374.002L326.922 374.005Z" fill="white"/>
<path fill-rule="evenodd" clip-rule="evenodd" d="M449.444 374.118C448.829 374.768 448.137 375.338 447.331 375.712C445.065 376.771 442.298 376.276 439.915 376.036C423.936 374.421 412.554 369.487 407.859 359.958C404.11 352.348 404.939 343.918 408.995 338.054C412.752 332.623 419.201 329.551 426.686 331.331C430.139 324.438 436.634 321.458 443.199 322.066C450.285 322.721 457.257 327.504 460.662 335.274C461.33 336.798 461.81 338.384 462.103 340.033C462.994 340.31 463.85 340.687 464.67 341.165C468.912 343.648 471.822 348.624 471.697 354.352C471.539 361.66 465.892 367.769 457.189 372.953C455.699 373.843 454.084 374.904 452.285 374.904C451.285 374.902 450.33 374.556 449.444 374.118ZM413.665 357.083C410.924 351.516 411.653 345.619 414.318 341.766C416.875 338.067 421.283 336.082 426.913 338.179C428.88 338.911 431.07 337.885 431.774 335.909C433.792 330.236 438.142 328.126 442.611 328.539C447.27 328.972 452.246 332.2 454.734 337.884C455.036 338.565 455.282 339.276 455.471 340.014C454.33 340.37 453.247 340.896 452.261 341.574C448.245 338.827 443.594 338.967 439.856 341.151C435.617 343.624 432.713 348.599 432.842 354.328C432.979 360.196 436.649 365.291 442.597 369.764C441.937 369.715 441.249 369.638 440.557 369.569C425.053 368.002 416.784 363.414 413.665 357.083ZM439.32 354.186C439.238 350.735 440.991 348.013 443.119 346.767C445.087 345.621 447.496 345.616 449.726 347.879C450.059 348.216 450.455 348.484 450.891 348.667C451.327 348.85 451.795 348.945 452.267 348.945C452.74 348.946 453.207 348.852 453.643 348.67C454.079 348.488 454.475 348.221 454.807 347.884C457.038 345.62 459.447 345.63 461.412 346.779C463.546 348.027 465.296 350.754 465.22 354.204C465.14 357.947 462.172 362.424 453.879 367.362C453.352 367.676 452.831 368.006 452.281 368.278C451.729 368.002 451.208 367.675 450.679 367.362C442.382 362.412 439.405 357.93 439.32 354.183L439.32 354.186Z" fill="white"/>
</g>
</svg>
